<svg width="123" height="29" viewBox="0 0 123 29" fill="none" xmlns="http://www.w3.org/2000/svg">
<g clip-path="url(#clip0_20_37)">
<path d="M14.2306 28.5397C21.8138 28.5397 27.9613 22.2539 27.9613 14.5C27.9613 6.74609 21.8138 0.460312 14.2306 0.460312C6.64741 0.460312 0.5 6.74609 0.5 14.5C0.5 22.2539 6.64741 28.5397 14.2306 28.5397Z" fill="#D2D1DA"/>
<path d="M14.4936 5.69284C17.3985 5.69284 19.7533 8.08258 19.7533 11.0305H14.4936V5.69284Z" fill="#F6F8FD"/>
<path d="M14.4936 17.1688C17.3985 17.1688 19.7533 14.7791 19.7533 11.8312H14.4936V17.1688Z" fill="#F6F8FD"/>
<path d="M13.9677 23.3072C11.0629 23.3072 8.70799 20.9174 8.70799 17.9695H13.9677V23.3072Z" fill="#F6F8FD"/>
<path d="M13.4417 11.8312H9.23399C8.94348 11.8312 8.70799 12.0701 8.70799 12.3649V16.6351C8.70799 16.9299 8.94348 17.1688 9.23399 17.1688H13.4417C13.7322 17.1688 13.9677 16.9299 13.9677 16.6351V12.3649C13.9677 12.0701 13.7322 11.8312 13.4417 11.8312Z" fill="#F6F8FD"/>
<path d="M11.3378 11.0305C12.7903 11.0305 13.9677 9.83561 13.9677 8.36167C13.9677 6.88769 12.7903 5.69284 11.3378 5.69284C9.88545 5.69284 8.70799 6.88769 8.70799 8.36167C8.70799 9.83561 9.88545 11.0305 11.3378 11.0305Z" fill="#F6F8FD"/>
<path d="M46.002 11.9719C46.002 12.7582 45.8255 13.4799 45.4725 14.1373C45.1196 14.7817 44.5776 15.3037 43.8465 15.7033C43.1154 16.1028 42.2078 16.3026 41.1238 16.3026H39.1195V21.1746H35.8863V7.6026H41.1238C42.1826 7.6026 43.0776 7.78949 43.8087 8.16327C44.5398 8.53704 45.0881 9.0526 45.4536 9.70993C45.8192 10.3673 46.002 11.1213 46.002 11.9719ZM40.878 13.6733C41.4956 13.6733 41.9557 13.525 42.2582 13.2286C42.5607 12.9322 42.712 12.5133 42.712 11.9719C42.712 11.4306 42.5607 11.0117 42.2582 10.7153C41.9557 10.4188 41.4956 10.2706 40.878 10.2706H39.1195V13.6733H40.878ZM57.6307 15.6066C57.6307 15.9159 57.6118 16.2382 57.5739 16.5733H50.2566C50.3071 17.2435 50.5151 17.759 50.8806 18.1199C51.2588 18.4679 51.7188 18.6419 52.2609 18.6419C53.0676 18.6419 53.6285 18.2939 53.9437 17.5979H57.3849C57.2084 18.3068 56.887 18.9448 56.4206 19.5119C55.9668 20.079 55.3933 20.5237 54.7 20.8459C54.0067 21.1682 53.2315 21.3293 52.3743 21.3293C51.3407 21.3293 50.4205 21.1037 49.6138 20.6526C48.8071 20.2015 48.1768 19.557 47.723 18.7193C47.2692 17.8815 47.0423 16.9019 47.0423 15.7806C47.0423 14.6593 47.2629 13.6797 47.7041 12.8419C48.1579 12.0042 48.7881 11.3597 49.5949 10.9086C50.4016 10.4575 51.3281 10.2319 52.3743 10.2319C53.3953 10.2319 54.3029 10.451 55.097 10.8893C55.8912 11.3275 56.5088 11.9526 56.95 12.7646C57.4038 13.5766 57.6307 14.5239 57.6307 15.6066ZM54.3218 14.7366C54.3218 14.1695 54.1327 13.7184 53.7546 13.3833C53.3764 13.0482 52.9037 12.8806 52.3365 12.8806C51.7945 12.8806 51.3344 13.0417 50.9562 13.3639C50.5907 13.6862 50.3638 14.1437 50.2756 14.7366H54.3218ZM58.6936 15.7613C58.6936 14.6528 58.8952 13.6797 59.2986 12.8419C59.7146 12.0042 60.2755 11.3597 60.9814 10.9086C61.6873 10.4575 62.4751 10.2319 63.3449 10.2319C64.0381 10.2319 64.6684 10.3802 65.2356 10.6766C65.8155 10.973 66.2693 11.3726 66.597 11.8753V6.86793H69.8302V21.1746H66.597V19.6279C66.2945 20.1435 65.8596 20.5559 65.2924 20.8653C64.7377 21.1746 64.0886 21.3293 63.3449 21.3293C62.4751 21.3293 61.6873 21.1037 60.9814 20.6526C60.2755 20.1886 59.7146 19.5377 59.2986 18.6999C58.8952 17.8493 58.6936 16.8697 58.6936 15.7613ZM66.597 15.7806C66.597 14.9557 66.3701 14.3048 65.9163 13.8279C65.4751 13.351 64.9331 13.1126 64.2902 13.1126C63.6474 13.1126 63.0991 13.351 62.6453 13.8279C62.2041 14.2919 61.9835 14.9364 61.9835 15.7613C61.9835 16.5862 62.2041 17.2435 62.6453 17.7333C63.0991 18.2102 63.6474 18.4486 64.2902 18.4486C64.9331 18.4486 65.4751 18.2102 65.9163 17.7333C66.3701 17.2564 66.597 16.6055 66.597 15.7806ZM71.5265 15.7613C71.5265 14.6528 71.7282 13.6797 72.1316 12.8419C72.5475 12.0042 73.1085 11.3597 73.8144 10.9086C74.5202 10.4575 75.3081 10.2319 76.1778 10.2319C76.8711 10.2319 77.5014 10.3802 78.0686 10.6766C78.6484 10.973 79.1022 11.3726 79.43 11.8753V6.86793H82.6632V21.1746H79.43V19.6279C79.1274 20.1435 78.6925 20.5559 78.1253 20.8653C77.5707 21.1746 76.9215 21.3293 76.1778 21.3293C75.3081 21.3293 74.5202 21.1037 73.8144 20.6526C73.1085 20.1886 72.5475 19.5377 72.1316 18.6999C71.7282 17.8493 71.5265 16.8697 71.5265 15.7613ZM79.43 15.7806C79.43 14.9557 79.2031 14.3048 78.7493 13.8279C78.3081 13.351 77.7661 13.1126 77.1232 13.1126C76.4803 13.1126 75.932 13.351 75.4782 13.8279C75.0371 14.2919 74.8165 14.9364 74.8165 15.7613C74.8165 16.5862 75.0371 17.2435 75.4782 17.7333C75.932 18.2102 76.4803 18.4486 77.1232 18.4486C77.7661 18.4486 78.3081 18.2102 78.7493 17.7333C79.2031 17.2564 79.43 16.6055 79.43 15.7806ZM86.6284 9.26527C86.0612 9.26527 85.5948 9.09771 85.2292 8.7626C84.8763 8.4146 84.6998 7.98927 84.6998 7.4866C84.6998 6.97104 84.8763 6.54571 85.2292 6.2106C85.5948 5.8626 86.0612 5.6886 86.6284 5.6886C87.183 5.6886 87.6368 5.8626 87.9898 6.2106C88.3553 6.54571 88.5381 6.97104 88.5381 7.4866C88.5381 7.98927 88.3553 8.4146 87.9898 8.7626C87.6368 9.09771 87.183 9.26527 86.6284 9.26527ZM88.2356 10.3866V21.1746H85.0023V10.3866H88.2356ZM100.996 10.3866V21.1746H97.7633V19.7053C97.4355 20.1822 96.988 20.5688 96.4208 20.8653C95.8662 21.1488 95.2485 21.2906 94.5679 21.2906C93.7611 21.2906 93.0489 21.1102 92.4313 20.7493C91.8136 20.3755 91.3346 19.8406 90.9943 19.1446C90.654 18.4486 90.4838 17.6302 90.4838 16.6893V10.3866H93.6981V16.2446C93.6981 16.9664 93.8809 17.527 94.2464 17.9266C94.612 18.3262 95.1036 18.5259 95.7212 18.5259C96.3515 18.5259 96.8494 18.3262 97.2149 17.9266C97.5805 17.527 97.7633 16.9664 97.7633 16.2446V10.3866H100.996ZM116.781 10.2706C118.092 10.2706 119.132 10.6766 119.901 11.4886C120.683 12.3006 121.073 13.4284 121.073 14.8719V21.1746H117.859V15.3166C117.859 14.6206 117.676 14.0857 117.311 13.7119C116.958 13.3253 116.466 13.1319 115.836 13.1319C115.206 13.1319 114.708 13.3253 114.342 13.7119C113.989 14.0857 113.813 14.6206 113.813 15.3166V21.1746H110.598V15.3166C110.598 14.6206 110.416 14.0857 110.05 13.7119C109.697 13.3253 109.206 13.1319 108.575 13.1319C107.945 13.1319 107.447 13.3253 107.082 13.7119C106.729 14.0857 106.552 14.6206 106.552 15.3166V21.1746H103.319V10.3866H106.552V11.7399C106.88 11.2888 107.309 10.9344 107.838 10.6766C108.367 10.4059 108.966 10.2706 109.634 10.2706C110.428 10.2706 111.134 10.4446 111.752 10.7926C112.382 11.1406 112.874 11.6368 113.227 12.2813C113.592 11.6884 114.09 11.205 114.72 10.8313C115.351 10.4575 116.038 10.2706 116.781 10.2706Z" fill="#D2D1DA"/>
</g>
<defs>
<clipPath id="clip0_20_37">
<rect width="122" height="29" fill="white" transform="translate(0.5)"/>
</clipPath>
</defs>
</svg>
