<svg width="60" height="61" viewBox="0 0 60 61" fill="none" xmlns="http://www.w3.org/2000/svg">
<path d="M51.25 10.0435H8.75C6.67893 10.0435 5 11.7224 5 13.7935V46.2935C5 48.3645 6.67893 50.0435 8.75 50.0435H51.25C53.3211 50.0435 55 48.3645 55 46.2935V13.7935C55 11.7224 53.3211 10.0435 51.25 10.0435Z" stroke="#211B3D" stroke-width="4" stroke-linejoin="round"/>
<path d="M5 13.7935C5 11.7224 6.67894 10.0435 8.75 10.0435H51.25C53.3211 10.0435 55 11.7224 55 13.7935V25.0435H5V13.7935Z" fill="#388794" stroke="#211B3D" stroke-width="4"/>
<path d="M10 17.5435C10 16.1627 11.1193 15.0435 12.5 15.0435C13.8807 15.0435 15 16.1627 15 17.5435C15 18.9242 13.8807 20.0435 12.5 20.0435C11.1193 20.0435 10 18.9242 10 17.5435Z" fill="white"/>
<path d="M17.5 17.5435C17.5 16.1627 18.6193 15.0435 20 15.0435C21.3807 15.0435 22.5 16.1627 22.5 17.5435C22.5 18.9242 21.3807 20.0435 20 20.0435C18.6193 20.0435 17.5 18.9242 17.5 17.5435Z" fill="white"/>
</svg>
