<svg width="60" height="61" viewBox="0 0 60 61" fill="none" xmlns="http://www.w3.org/2000/svg">
<path d="M54.8764 45.0435H5.12329C6.3776 32.4102 17.0365 22.5435 29.9999 22.5435C42.9633 22.5435 53.6221 32.4102 54.8764 45.0435Z" fill="#388794" stroke="#211B3D" stroke-width="4" stroke-linejoin="round"/>
<path d="M17.5 25.0435L12.5 16.2935" stroke="#211B3D" stroke-width="4" stroke-linecap="round" stroke-linejoin="round"/>
<path d="M41.25 25.0435L46.25 16.2935" stroke="#211B3D" stroke-width="4" stroke-linecap="round" stroke-linejoin="round"/>
<path d="M18.75 38.7935C20.1307 38.7935 21.25 37.6742 21.25 36.2935C21.25 34.9127 20.1307 33.7935 18.75 33.7935C17.3693 33.7935 16.25 34.9127 16.25 36.2935C16.25 37.6742 17.3693 38.7935 18.75 38.7935Z" fill="white"/>
<path d="M41.25 38.7935C42.6307 38.7935 43.75 37.6742 43.75 36.2935C43.75 34.9127 42.6307 33.7935 41.25 33.7935C39.8693 33.7935 38.75 34.9127 38.75 36.2935C38.75 37.6742 39.8693 38.7935 41.25 38.7935Z" fill="white"/>
</svg>
