<svg width="60" height="59" viewBox="0 0 60 59" fill="none" xmlns="http://www.w3.org/2000/svg">
<path d="M6.52174 1H53.4783C56.5285 1 59 3.47069 59 6.51685V51.4831C59 54.5293 56.5285 57 53.4783 57H6.52174C3.47146 57 1 54.5293 1 51.4831V6.51685C1 3.47069 3.47146 1 6.52174 1Z" fill="#EAE11B" stroke="#388794" stroke-width="2"/>
<path d="M17.7908 37.7879C18.6188 37.7879 19.2812 37.5777 19.778 37.1574C20.2747 36.7371 20.6505 36.2021 20.9052 35.5524C21.16 34.9028 21.332 34.215 21.4211 33.4889C21.5103 32.7628 21.5485 32.075 21.5358 31.4254V16.2165H24.3062V31.3872C24.3062 32.4317 24.1979 33.4825 23.9814 34.5397C23.7649 35.597 23.4018 36.546 22.8923 37.3867C22.3828 38.2273 21.7077 38.9216 20.867 39.4693C20.0263 40.017 18.9882 40.2845 17.7526 40.2718C17.3705 40.2718 16.9883 40.2463 16.6062 40.1953C16.2241 40.1444 15.8483 40.0361 15.479 39.8706V37.1383C15.8101 37.3803 16.1731 37.5459 16.568 37.635C16.9629 37.7242 17.3705 37.7752 17.7908 37.7879ZM32.1399 21.8912C32.1399 22.4771 32.2482 22.993 32.4648 23.4388C32.6813 23.8846 33.0188 24.2922 33.4774 24.6617C34.0379 25.1202 34.6493 25.515 35.3116 25.8463C35.974 26.1774 36.63 26.5086 37.2796 26.8398C38.0057 27.2092 38.7381 27.6041 39.4769 28.0244C40.2157 28.4447 40.8908 28.9416 41.5022 29.5147C42.1136 30.0879 42.604 30.7248 42.9734 31.4254C43.3428 32.126 43.5339 32.9539 43.5466 33.9092C43.5466 35.1321 43.3046 36.1511 42.8206 36.9663C42.3365 37.7815 41.6933 38.4311 40.8908 38.9152C40.0883 39.3992 39.1903 39.7495 38.1968 39.9661C37.2032 40.1826 36.1778 40.2845 35.1206 40.2718C34.7257 40.2718 34.2608 40.2399 33.7258 40.1762C33.1908 40.1126 32.6367 40.0234 32.0635 39.9088C31.4903 39.7941 30.9553 39.654 30.4585 39.4884C29.9618 39.3228 29.5415 39.1318 29.1975 38.9152V35.648C29.5669 35.9792 30.0127 36.2721 30.535 36.5269C31.0572 36.7816 31.6113 37.0045 32.1972 37.1956C32.7832 37.3867 33.3691 37.5332 33.9551 37.635C34.541 37.737 35.076 37.7879 35.56 37.7879C36.1842 37.7879 36.7956 37.737 37.3943 37.635C37.993 37.5332 38.5343 37.3421 39.0183 37.0618C39.5024 36.7816 39.8909 36.4059 40.1838 35.9346C40.4768 35.4633 40.6297 34.8519 40.6424 34.1003C40.6424 33.438 40.4832 32.8584 40.1647 32.3616C39.8463 31.8649 39.4132 31.4063 38.8655 30.9859C38.3178 30.5656 37.7063 30.1898 37.0312 29.8586C36.3562 29.5275 35.6619 29.1708 34.9486 28.7887C34.2353 28.4065 33.5347 28.0244 32.8469 27.6423C32.159 27.2601 31.5476 26.8016 31.0126 26.2666C30.4777 25.7316 30.0509 25.1393 29.7325 24.4897C29.4141 23.8401 29.2485 23.0567 29.2357 22.1396C29.2357 21.0186 29.4777 20.0633 29.9618 19.2735C30.4458 18.4838 31.0827 17.8278 31.8725 17.3056C32.6622 16.7833 33.5475 16.4076 34.5283 16.1782C35.5091 15.949 36.4835 15.828 37.4516 15.8152C37.8337 15.8152 38.2477 15.8216 38.6935 15.8344C39.1394 15.8471 39.5915 15.8853 40.0501 15.949C40.5087 16.0127 40.9481 16.1019 41.3684 16.2165C41.7888 16.3311 42.1837 16.4776 42.553 16.656V19.7704C41.7633 19.2353 40.9099 18.8596 39.9928 18.643C39.0757 18.4265 38.1395 18.3182 37.1841 18.3182C36.6236 18.3182 36.0504 18.3756 35.4645 18.4902C34.8786 18.6048 34.3372 18.8023 33.8405 19.0825C33.3437 19.3627 32.9361 19.7321 32.6176 20.1907C32.2992 20.6492 32.1399 21.2161 32.1399 21.8912Z" fill="black"/>
</svg>
