<svg width="60" height="59" viewBox="0 0 60 59" fill="none" xmlns="http://www.w3.org/2000/svg">
<g clip-path="url(#clip0_32_782)">
<path d="M6.52174 1.04346H53.4783C56.5285 1.04346 59 3.51414 59 6.56031V51.5266C59 54.5728 56.5285 57.0435 53.4783 57.0435H6.52174C3.47146 57.0435 1 54.5728 1 51.5266V6.56031C1 3.51414 3.47146 1.04346 6.52174 1.04346Z" fill="#5B397B" stroke="#388794" stroke-width="2"/>
<path d="M19.7061 15.0322C17.6966 15.0322 16.2096 16.7897 16.2762 18.6957C16.3402 20.5267 16.2571 22.8984 15.6597 24.8324C15.0604 26.772 14.0468 28.0006 12.3913 28.1585V29.9395C14.0468 30.0973 15.0604 31.3259 15.6597 33.2657C16.2571 35.1997 16.3402 37.5711 16.2762 39.4023C16.2096 41.308 17.6966 43.0657 19.7063 43.0657H40.2965C42.3061 43.0657 43.7927 41.3082 43.7261 39.4023C43.6623 37.5712 43.7452 35.1997 44.3427 33.2657C44.9423 31.3261 45.9532 30.0972 47.6087 29.9395V28.1585C45.9532 28.0006 44.9423 26.772 44.3428 24.8324C43.7452 22.8987 43.6623 20.5268 43.7261 18.6957C43.7927 16.79 42.3061 15.0322 40.2965 15.0322H19.7058H19.7061ZM36.2676 32.2886C36.2676 34.9131 34.3086 36.5047 31.0576 36.5047H25.5233C25.365 36.5046 25.2132 36.4418 25.1013 36.3299C24.9893 36.2181 24.9265 36.0663 24.9265 35.9082V22.1898C24.9265 22.1114 24.9419 22.0338 24.9719 21.9615C25.0019 21.8891 25.0458 21.8233 25.1013 21.7679C25.1567 21.7125 25.2225 21.6685 25.2949 21.6386C25.3673 21.6086 25.445 21.5931 25.5234 21.5931H31.026C33.7368 21.5931 35.5158 23.0606 35.5158 25.3133C35.5158 26.8946 34.3189 28.3103 32.7943 28.5581V28.6407C34.87 28.8682 36.2676 30.3046 36.2676 32.2886ZM30.454 23.484H27.2986V27.9378H29.9564C32.0108 27.9378 33.1439 27.1112 33.1439 25.6334C33.1439 24.2487 32.1696 23.484 30.4541 23.484H30.454ZM27.2986 29.7051V34.6133H30.5702C32.7091 34.6133 33.8424 33.7556 33.8424 32.1437C33.8424 30.5315 32.6776 29.7048 30.4326 29.7048H27.2986V29.7051Z" fill="white"/>
</g>
<defs>
<clipPath id="clip0_32_782">
<rect width="60" height="58" fill="white" transform="translate(0 0.043457)"/>
</clipPath>
</defs>
</svg>
