<svg width="60" height="59" viewBox="0 0 60 59" fill="none" xmlns="http://www.w3.org/2000/svg">
<g clip-path="url(#clip0_32_1205)">
<path d="M6.52174 1.04346H53.4783C56.5285 1.04346 59 3.51414 59 6.56031V51.5266C59 54.5728 56.5285 57.0435 53.4783 57.0435H6.52174C3.47146 57.0435 1 54.5728 1 51.5266V6.56031C1 3.51414 3.47146 1.04346 6.52174 1.04346Z" fill="#3FB27F" stroke="#388794" stroke-width="2"/>
<path d="M47.6087 15.438H33.0228L30 20.6433L26.9772 15.438H12.3913L30 45.9075L47.6087 15.438ZM30 33.7227L19.963 16.3471H26.4636L30 22.4762L33.5364 16.3471H40.037L30 33.7227Z" fill="#415163"/>
</g>
<defs>
<clipPath id="clip0_32_1205">
<rect width="60" height="58" fill="white" transform="translate(0 0.043457)"/>
</clipPath>
</defs>
</svg>
