<svg width="60" height="58" viewBox="0 0 60 58" fill="none" xmlns="http://www.w3.org/2000/svg">
<g clip-path="url(#clip0_32_322)">
<path d="M6.52174 1H53.4783C56.5285 1 59 3.47069 59 6.51685V51.4831C59 54.5293 56.5285 57 53.4783 57H6.52174C3.47146 57 1 54.5293 1 51.4831V6.51685C1 3.47069 3.47146 1 6.52174 1Z" fill="#7AC7FF" stroke="#388794" stroke-width="2"/>
<path d="M17.6519 43.0125L14.9054 12.2191H45.0946L42.3444 43.0076L29.9817 46.4326L17.6519 43.0125Z" fill="#1572B6"/>
<path d="M30 43.8153L39.9905 41.0477L42.3408 14.7375H30V43.8153Z" fill="#33A9DC"/>
<path d="M30 25.8935H35.0014L35.3462 22.0261H30V18.2492H39.4769L39.3864 19.2622L38.4583 29.6704H30V25.8935Z" fill="white"/>
<path d="M30.0232 35.7017L30.0061 35.7066L25.7971 34.5703L25.5281 31.5582H21.7337L22.2632 37.4882L30.0049 39.6363L30.0232 39.6314V35.7017Z" fill="#EBEBEB"/>
<path d="M34.6797 29.5103L34.2248 34.5678L30.0098 35.7042V39.6339L37.7576 37.4882L37.8151 36.8504L38.4717 29.5103H34.6797Z" fill="white"/>
<path d="M30.0134 18.2492V22.0261H20.8838L20.808 21.1769L20.6356 19.2622L20.5451 18.2492H30.0134ZM30 25.8935V29.6704H25.8436L25.7678 28.8212L25.5966 26.9065L25.5061 25.8935H30Z" fill="#EBEBEB"/>
</g>
<defs>
<clipPath id="clip0_32_322">
<rect width="60" height="58" fill="white"/>
</clipPath>
</defs>
</svg>
