<svg width="60" height="59" viewBox="0 0 60 59" fill="none" xmlns="http://www.w3.org/2000/svg">
<g clip-path="url(#clip0_32_828)">
<path d="M6.52174 1.04346H53.4783C56.5285 1.04346 59 3.51414 59 6.56031V51.5266C59 54.5728 56.5285 57.0435 53.4783 57.0435H6.52174C3.47146 57.0435 1 54.5728 1 51.5266V6.56031C1 3.51414 3.47146 1.04346 6.52174 1.04346Z" fill="#92ABFB" stroke="#388794" stroke-width="2"/>
<path d="M28.1486 33.419C28.2455 34.6943 28.2267 35.9755 28.0924 37.2473C28.0867 37.4261 28.0342 37.6002 27.94 37.7522C27.8457 37.9043 27.7132 38.0289 27.5556 38.1137C26.5394 38.8676 23.1338 39.0484 22.7095 37.4465C22.553 37.4404 22.6777 36.9223 22.5286 36.9419C22.2307 36.9174 21.9427 36.8234 21.6878 36.6674C21.4329 36.5114 21.2183 36.2978 21.0611 36.0437C21.0672 34.2915 21.2605 27.9706 18.1263 29.6727C17.4453 30.052 16.9345 30.6764 16.6981 31.4188C16.4869 32.0665 16.3877 32.7454 16.4046 33.4264C16.3801 34.2988 16.5978 35.2532 16.6296 36.3003C16.6418 36.7683 16.7165 36.8869 16.3679 37.2852C15.8067 37.9267 14.8272 37.3854 14.2977 36.6803C14.0738 36.3252 13.9508 35.9159 13.9418 35.4963C13.5207 30.9192 13.9351 26.3036 15.1647 21.8744C15.6134 20.3715 15.77 20.154 17.1982 19.8167C18.8234 19.4596 20.4947 19.3606 22.1507 19.5235C23.4359 19.1056 26.4856 16.8426 27.8013 18.6388C29.7978 18.1959 31.8627 18.157 33.8745 18.5242C35.8863 18.8914 37.804 19.6575 39.5148 20.7772C41.2476 20.9083 42.9865 20.9397 44.7228 20.8713C44.9674 20.7149 45.2535 20.5475 45.503 20.4033C45.6861 20.2794 45.8917 20.1926 46.1083 20.1479C46.3895 20.1039 46.7564 20.0917 46.842 20.4412C46.9165 20.7998 46.9415 21.1669 46.9165 21.5323C46.9081 21.7526 46.8261 21.9637 46.6836 22.1321C46.5411 22.3003 46.3463 22.4161 46.1303 22.461C45.6421 22.3809 45.1688 22.2277 44.7265 22.0064C43.1368 22.0504 42.1585 21.9624 40.5689 22.0064C40.8245 22.2801 40.8134 22.461 40.9993 22.8226C41.4562 24.0242 41.6088 25.3198 41.4434 26.5945C41.2781 27.8691 40.7999 29.0831 40.0516 30.1285C39.9391 31.9491 40.0761 33.7881 40.0895 35.6148C40.0957 36.2441 40.1397 36.8429 39.5466 37.2607C39.0235 37.5741 38.4355 37.7635 37.8278 37.8143C37.22 37.8652 36.6087 37.7761 36.0408 37.554C35.7312 37.3765 35.4548 37.1466 35.2239 36.8746C35.0209 36.8969 34.8162 36.9009 34.6125 36.8869C34.2661 36.7901 33.9667 36.5707 33.77 36.2698C33.6573 36.0639 33.5611 35.8494 33.4826 35.6283C33.4826 34.7729 33.4508 34.4382 33.4508 33.5841C31.6879 33.8993 29.8789 33.8486 28.1364 33.4349L28.1486 33.419Z" fill="#CCCCCC"/>
<path d="M25.2248 38.8664C24.7198 38.8739 24.217 38.7979 23.7367 38.6415C23.47 38.57 23.2238 38.4373 23.0175 38.254C22.8112 38.0708 22.6505 37.842 22.5481 37.5858C22.459 37.4748 22.4153 37.3343 22.4258 37.1923V37.1374C22.115 37.0908 21.8178 36.9782 21.5541 36.8073C21.2905 36.6364 21.0665 36.411 20.8973 36.1464L20.8679 36.0987V35.781C20.879 34.3368 20.9071 30.4987 19.6036 29.7179C19.3841 29.6114 19.1399 29.5665 18.8969 29.588C18.6539 29.6096 18.4214 29.6967 18.2242 29.8401C17.5817 30.1978 17.1005 30.7876 16.8791 31.4884C16.6775 32.115 16.5832 32.771 16.6003 33.4288C16.6003 33.9194 16.6351 34.4094 16.7042 34.8951C16.7568 35.3424 16.8106 35.8067 16.8265 36.2942C16.8265 36.3663 16.8265 36.4287 16.8351 36.4848C16.8629 36.6538 16.8484 36.8271 16.793 36.9891C16.7375 37.1512 16.6427 37.297 16.5172 37.4135C16.4178 37.5307 16.2927 37.6235 16.1517 37.6845C16.0107 37.7455 15.8574 37.7732 15.704 37.7654C15.3906 37.7221 15.0898 37.6136 14.821 37.4469C14.5522 37.2803 14.3215 37.059 14.1436 36.7977C13.8928 36.4148 13.7562 35.9685 13.7498 35.511C13.3233 30.9098 13.741 26.2695 14.9825 21.8183C15.4411 20.2848 15.6428 19.9854 17.1579 19.6274C18.7902 19.2684 20.4686 19.1666 22.1324 19.3256C22.498 19.1832 22.8553 19.0201 23.2023 18.8368C24.7088 18.0841 26.7607 17.0614 27.887 18.4287C29.8831 17.9983 31.9448 17.9676 33.9528 18.3384C35.9609 18.7092 37.8754 19.4742 39.5857 20.589C41.2787 20.7162 42.9775 20.7456 44.6739 20.677C44.9185 20.5267 45.1777 20.3703 45.415 20.2334L45.4835 20.1943C45.6668 20.074 45.872 19.991 46.0875 19.95C46.6304 19.8656 46.9435 20.0147 47.0377 20.3911C47.116 20.7681 47.1428 21.1541 47.1171 21.5384C47.1048 21.8054 47.0026 22.0604 46.827 22.2621C46.6514 22.4637 46.4128 22.6001 46.1498 22.6492H46.1181L46.0875 22.6406C45.9819 22.6137 45.8759 22.5884 45.7696 22.5648C45.388 22.4996 45.0186 22.3768 44.6739 22.2007C43.8999 22.2203 43.2616 22.2093 42.6453 22.2007C42.1158 22.1921 41.5716 22.1824 40.9406 22.1921C40.9797 22.2692 41.0079 22.3437 41.0384 22.4195C41.0782 22.5262 41.1239 22.6307 41.1754 22.7323C41.6498 23.9599 41.8131 25.2858 41.6507 26.5917C41.4884 27.8977 41.0054 29.1433 40.2449 30.2177C40.1764 31.398 40.2118 32.6089 40.2449 33.7807C40.2632 34.3807 40.2815 35.0027 40.2852 35.6136V35.7187C40.3441 36.0326 40.3169 36.3565 40.2064 36.6562C40.096 36.9559 39.9065 37.2201 39.6579 37.4209C39.1086 37.755 38.4892 37.9573 37.8484 38.0118C37.2076 38.0663 36.5629 37.9715 35.965 37.7348C35.7017 37.6046 35.4672 37.4231 35.2752 37.2009C35.2325 37.1569 35.1897 37.1129 35.1457 37.0714C35.0857 37.0714 35.0234 37.0787 34.9683 37.0848C34.8344 37.1058 34.6979 37.1034 34.5648 37.0775C34.1715 36.9687 33.8312 36.7208 33.6074 36.3798C33.5213 36.241 33.4511 36.0931 33.3982 35.9387C33.3696 35.8612 33.3385 35.7845 33.3053 35.7089L33.2882 35.6711V35.6295C33.2882 35.2055 33.2808 34.9037 33.2723 34.6129C33.2662 34.3685 33.26 34.1241 33.2576 33.8077C31.6343 34.0745 29.9755 34.0363 28.3663 33.6952C28.4398 34.8891 28.4133 36.0871 28.2868 37.2766C28.2776 37.4805 28.2167 37.6786 28.1097 37.8524C28.0028 38.0261 27.8533 38.1699 27.6754 38.2701C26.9304 38.6939 26.0815 38.9005 25.2248 38.8664ZM22.8172 37.2559H22.8612L22.8978 37.3952C22.9718 37.6112 23.0993 37.8048 23.2684 37.9582C23.4376 38.1117 23.6428 38.2198 23.8651 38.2725C25.0521 38.6341 26.3333 38.5206 27.4382 37.956C27.574 37.8869 27.6884 37.7822 27.7692 37.653C27.85 37.5238 27.8941 37.3752 27.8967 37.2229C28.0246 36.015 28.0471 34.7983 27.964 33.5865L27.8601 33.5571L28.288 32.7092L28.3382 33.2749C30.0139 33.6452 31.7463 33.6817 33.4361 33.3824L33.6575 33.3531V33.5755C33.6575 33.9995 33.6648 34.3013 33.6734 34.5921C33.6819 34.8829 33.688 35.1701 33.6893 35.5782C33.7199 35.6503 33.7467 35.72 33.7737 35.7871C33.8169 35.9151 33.8738 36.038 33.9436 36.1537C34.1149 36.4158 34.3756 36.6069 34.6773 36.6914C34.7649 36.7045 34.8539 36.7045 34.9415 36.6914C35.0405 36.6796 35.1401 36.6743 35.2398 36.6755H35.3132L35.367 36.7256C35.433 36.7866 35.4991 36.8539 35.5651 36.9211C35.722 37.1049 35.9131 37.2568 36.1276 37.3683C36.6648 37.5777 37.2427 37.6619 37.8174 37.6145C38.392 37.567 38.9483 37.3893 39.4439 37.0946C39.9183 36.7598 39.9123 36.3004 39.9049 35.7175V35.6112C39.9049 35.0002 39.8828 34.3893 39.8645 33.7881C39.829 32.5821 39.7924 31.3345 39.8645 30.1114V30.0307L39.9257 29.977C40.6465 28.9639 41.1062 27.7888 41.2638 26.5557C41.4215 25.3226 41.2722 24.0698 40.8293 22.9082C40.7714 22.7943 40.7199 22.6773 40.6752 22.5575C40.6261 22.4002 40.5425 22.2558 40.4307 22.1347L40.136 21.8183L40.5677 21.806C41.3674 21.7841 42.0203 21.7951 42.6538 21.806C43.2872 21.817 43.9317 21.828 44.7216 21.806H44.7791L44.828 21.8366C45.1467 22.0092 45.4917 22.1285 45.8491 22.1897C45.9493 22.2129 46.0484 22.235 46.145 22.2594C46.3058 22.2094 46.4474 22.1112 46.5503 21.9781C46.6534 21.8449 46.7129 21.6833 46.721 21.5152C46.7442 21.1686 46.7204 20.8205 46.65 20.4803C46.6329 20.4057 46.5998 20.2652 46.1413 20.3373C45.9736 20.3702 45.814 20.4359 45.6717 20.5303L45.6033 20.5694C45.3587 20.7088 45.0787 20.8786 44.8317 21.0326L44.7864 21.0607H44.7339C42.9897 21.132 41.243 21.1006 39.5026 20.9666H39.4512L39.4085 20.9373C37.7192 19.8304 35.8249 19.0736 33.8377 18.7116C31.8504 18.3495 29.8107 18.3896 27.8393 18.8294L27.717 18.8515L27.6449 18.7537C26.7314 17.5074 24.7908 18.4764 23.3735 19.1838C22.9983 19.3844 22.6102 19.5599 22.2118 19.7092L22.1727 19.7215H22.1324C20.4968 19.5602 18.8462 19.6575 17.2411 20.0098C15.8703 20.3324 15.7737 20.4986 15.3493 21.9331C14.1198 26.3381 13.7054 30.9304 14.1265 35.4841C14.1291 35.8665 14.2384 36.2405 14.442 36.5643C14.5859 36.7788 14.7723 36.9616 14.9894 37.1015C15.2067 37.2415 15.4503 37.3356 15.7052 37.378C15.8006 37.3836 15.896 37.3667 15.9837 37.3287C16.0714 37.2907 16.149 37.2327 16.2102 37.1593C16.3022 37.0809 16.3713 36.9791 16.4105 36.8648C16.4497 36.7504 16.4573 36.6276 16.4328 36.5093C16.4328 36.4494 16.4254 36.3871 16.4242 36.3089C16.4055 35.8518 16.3647 35.3959 16.3019 34.9428C16.2304 34.4397 16.1948 33.9321 16.1955 33.4239C16.1776 32.7191 16.2815 32.0164 16.5025 31.3467C16.7567 30.5628 17.2984 29.9041 18.0188 29.5029C18.274 29.3237 18.5734 29.2176 18.8846 29.196C19.1958 29.1745 19.507 29.2384 19.7845 29.3807C21.28 30.2763 21.2519 34.1339 21.2397 35.781V35.9851C21.3796 36.1971 21.565 36.3752 21.7825 36.5067C21.9999 36.6382 22.2439 36.7196 22.4967 36.7451C22.5294 36.7415 22.5625 36.7445 22.594 36.7539C22.6256 36.7634 22.6549 36.7791 22.6802 36.8001C22.7244 36.8497 22.7581 36.9078 22.7791 36.9708C22.8001 37.0338 22.8081 37.1005 22.8025 37.1667C22.8134 37.1948 22.8147 37.2302 22.8172 37.2559Z" fill="#CCCCCC"/>
<path d="M27.421 32.9303C27.518 34.2055 27.4991 35.4868 27.3648 36.7585C27.3592 36.9373 27.3066 37.1114 27.2123 37.2635C27.1182 37.4155 26.9856 37.5402 26.828 37.6249C25.8118 38.3788 22.4063 38.5597 21.9819 36.9577C21.8254 36.9516 21.9502 36.4335 21.8009 36.4531C21.5031 36.4286 21.2151 36.3346 20.9602 36.1786C20.7053 36.0226 20.4907 35.809 20.3335 35.5549C20.3397 33.8028 20.5329 27.4818 17.3988 29.1839C16.7178 29.5632 16.207 30.1877 15.9705 30.9301C15.7593 31.5777 15.6601 32.2566 15.677 32.9376C15.6526 33.8101 15.8703 34.7644 15.902 35.8116C15.9143 36.2796 15.9889 36.3981 15.6404 36.7964C15.0791 37.4379 14.0996 36.8966 13.5701 36.1916C13.3462 35.8365 13.2232 35.4271 13.2143 35.0075C12.7932 30.4304 13.2075 25.8149 14.4371 21.3857C14.8859 19.8828 15.0424 19.6652 16.4707 19.328C18.0958 18.9708 19.7671 18.8719 21.4231 19.0347C22.7083 18.6169 25.758 16.3539 27.0738 18.1501C29.0702 17.7072 31.1352 17.6682 33.1469 18.0354C35.1587 18.4026 37.0765 19.1687 38.7873 20.2884C40.52 20.4195 42.2588 20.4509 43.9953 20.3825C44.2398 20.2261 44.5259 20.0587 44.7754 19.9145C44.9585 19.7906 45.1642 19.7039 45.3807 19.6592C45.662 19.6152 46.0288 19.6029 46.1144 19.9524C46.1889 20.311 46.214 20.6781 46.189 21.0435C46.1805 21.2639 46.0985 21.475 45.956 21.6433C45.8135 21.8115 45.6187 21.9274 45.4027 21.9722C44.9146 21.8922 44.4413 21.7389 43.9989 21.5176C42.4092 21.5616 41.431 21.4737 39.8413 21.5176C40.0969 21.7913 40.0859 21.9722 40.2717 22.3339C40.7287 23.5354 40.8812 24.8311 40.7159 26.1057C40.5505 27.3803 40.0724 28.5944 39.3241 29.6397C39.2116 31.4603 39.3485 33.2993 39.362 35.1261C39.3681 35.7553 39.4121 36.3541 38.819 36.772C38.2959 37.0854 37.7079 37.2747 37.1002 37.3256C36.4925 37.3764 35.8811 37.2873 35.3132 37.0652C35.0036 36.8877 34.7272 36.6579 34.4963 36.3858C34.2933 36.4081 34.0887 36.4122 33.8849 36.3981C33.5385 36.3013 33.2391 36.082 33.0424 35.781C32.9296 35.5751 32.8336 35.3607 32.755 35.1395C32.755 34.2842 32.7232 33.9494 32.7232 33.0953C30.9603 33.4106 29.1513 33.3598 27.4088 32.9462L27.421 32.9303Z" fill="#373435"/>
<path d="M24.4973 38.3777C23.9922 38.3851 23.4893 38.3092 23.0091 38.1528C22.7425 38.0813 22.4962 37.9486 22.2899 37.7653C22.0836 37.5821 21.9229 37.3533 21.8205 37.0971C21.7314 36.9861 21.6877 36.8455 21.6982 36.7036V36.6487C21.3874 36.6021 21.0902 36.4895 20.8265 36.3186C20.5628 36.1477 20.3389 35.9223 20.1697 35.6576L20.1404 35.61V35.2923C20.1513 33.848 20.1795 30.01 18.8759 29.2292C18.6565 29.1227 18.4123 29.0778 18.1693 29.0993C17.9264 29.1209 17.6938 29.208 17.4966 29.3514C16.8541 29.7091 16.3728 30.2988 16.1515 30.9997C15.9499 31.6263 15.8557 32.2822 15.8727 32.9401C15.8727 33.4307 15.9074 33.9207 15.9766 34.4064C16.0292 34.8549 16.083 35.318 16.0989 35.8068C16.0989 35.8788 16.0989 35.9411 16.1075 35.9974C16.1353 36.1664 16.1208 36.3396 16.0654 36.5016C16.0099 36.6637 15.9151 36.8094 15.7895 36.926C15.6903 37.0433 15.5652 37.1361 15.4242 37.1971C15.2831 37.2582 15.1298 37.2858 14.9763 37.2779C14.663 37.2347 14.3622 37.1262 14.0934 36.9595C13.8247 36.7928 13.5939 36.5716 13.416 36.3102C13.1653 35.9273 13.0287 35.481 13.0223 35.0235C12.5956 30.4219 13.0133 25.7812 14.2549 21.3296C14.7134 19.7961 14.9152 19.4967 16.4303 19.1387C18.0626 18.7796 19.741 18.6779 21.4047 18.8369C21.7705 18.6945 22.1277 18.5314 22.4747 18.3481C23.9812 17.5954 26.0332 16.5714 27.1594 17.94C29.1556 17.5098 31.2173 17.4793 33.2253 17.8503C35.2334 18.2214 37.1479 18.9865 38.8581 20.1015C40.549 20.2293 42.2459 20.2596 43.9402 20.192C44.1786 20.0441 44.4453 19.8841 44.6813 19.7484L44.7498 19.7093C44.9331 19.589 45.1383 19.506 45.3538 19.4649C45.8967 19.3806 46.2098 19.5297 46.304 19.906C46.3823 20.2831 46.4091 20.6691 46.3835 21.0534C46.3711 21.3204 46.2689 21.5754 46.0933 21.777C45.9177 21.9786 45.6791 22.1151 45.4161 22.1641H45.3844L45.3538 22.1556C45.2482 22.1286 45.1422 22.1034 45.0359 22.0798C44.6571 22.0129 44.2906 21.8894 43.9488 21.7132C43.1747 21.7328 42.5364 21.7218 41.9201 21.7132C41.3906 21.7047 40.8464 21.6949 40.2155 21.7047C40.2546 21.7816 40.2828 21.8562 40.3133 21.932C40.353 22.0387 40.3987 22.1432 40.4502 22.2448C40.9246 23.4724 41.0877 24.7982 40.9254 26.1042C40.7631 27.4102 40.2801 28.6557 39.5197 29.7302C39.4512 30.9106 39.4866 32.1215 39.5197 33.292C39.5368 33.8932 39.5552 34.5139 39.5601 35.1249V35.23C39.6191 35.5437 39.592 35.8676 39.4818 36.1673C39.3716 36.467 39.1823 36.7312 38.9339 36.9321C38.3847 37.2663 37.7652 37.4686 37.1245 37.5231C36.4836 37.5776 35.839 37.4828 35.241 37.2461C34.9778 37.1159 34.7433 36.9344 34.5513 36.7122C34.5085 36.6682 34.4658 36.6242 34.4217 36.5827C34.3618 36.5827 34.2995 36.59 34.2444 36.5961C34.1105 36.6172 33.974 36.6147 33.8409 36.5888C33.4476 36.48 33.1073 36.232 32.8834 35.8911C32.7973 35.7524 32.7271 35.6044 32.6743 35.45C32.6457 35.3725 32.6146 35.2958 32.5814 35.2202L32.5643 35.1824V35.1408C32.5643 34.7168 32.5569 34.415 32.5484 34.1242C32.5422 33.8798 32.5349 33.6354 32.5337 33.3189C30.9104 33.5857 29.2516 33.5476 27.6424 33.2065C27.7128 34.3994 27.6833 35.5962 27.5543 36.7843C27.5451 36.9881 27.4842 37.1862 27.3772 37.36C27.2703 37.5338 27.1208 37.6775 26.9429 37.7777C26.1998 38.202 25.3525 38.4098 24.4973 38.3777ZM22.0895 36.7671H22.1335L22.1703 36.9065C22.2442 37.1224 22.3717 37.3161 22.5408 37.4695C22.71 37.623 22.9152 37.7311 23.1375 37.7838C24.3245 38.1455 25.6058 38.0321 26.7106 37.4673C26.8464 37.3982 26.9608 37.2934 27.0416 37.1643C27.1223 37.0351 27.1665 36.8865 27.1692 36.7342C27.2969 35.5263 27.3194 34.3096 27.2364 33.0978L27.1325 33.0684L27.5543 32.2265L27.6045 32.7923C29.2802 33.1625 31.0126 33.1991 32.7024 32.8998L32.9238 32.8705V33.0929C32.9238 33.5169 32.9311 33.8187 32.9397 34.1095C32.9482 34.4004 32.9543 34.6875 32.9556 35.0956C32.9861 35.1677 33.013 35.2373 33.0399 35.3057C33.083 35.4338 33.14 35.5567 33.2099 35.6723C33.3812 35.9345 33.6419 36.1256 33.9436 36.21C34.0311 36.2232 34.1202 36.2232 34.2078 36.21C34.3068 36.1982 34.4064 36.1929 34.5061 36.1941H34.5795L34.6333 36.2442C34.6993 36.3053 34.7654 36.3664 34.8314 36.4397C34.9884 36.6235 35.1794 36.7754 35.3939 36.8869C35.9311 37.0963 36.509 37.1805 37.0837 37.1331C37.6583 37.0857 38.2146 36.9078 38.7102 36.6132C39.1846 36.2784 39.1785 35.8189 39.1712 35.2361V35.1298C39.1712 34.5188 39.1491 33.9079 39.1308 33.3055C39.0953 32.0994 39.0587 30.8531 39.1308 29.63V29.5493L39.192 29.4956C39.9128 28.4825 40.3723 27.3073 40.5299 26.0743C40.6876 24.8413 40.5384 23.5884 40.0956 22.4268C40.0377 22.313 39.9862 22.1958 39.9415 22.0761C39.8924 21.9189 39.8088 21.7745 39.697 21.6534L39.4023 21.3369L39.8339 21.3247C40.6337 21.3026 41.2866 21.3137 41.9201 21.3247C42.5535 21.3357 43.198 21.3466 43.9879 21.3247H44.0453L44.0943 21.3552C44.413 21.5278 44.758 21.6471 45.1154 21.7083C45.2156 21.7316 45.3147 21.7535 45.4113 21.778C45.5721 21.728 45.7137 21.6298 45.8166 21.4967C45.9197 21.3635 45.9792 21.202 45.9872 21.0338C46.0105 20.6873 45.9867 20.3391 45.9163 19.9989C45.8992 19.9243 45.8661 19.7851 45.4076 19.8559C45.2399 19.8888 45.0803 19.9544 44.938 20.049L44.8683 20.0881C44.6238 20.2286 44.3413 20.3984 44.0967 20.5512L44.0625 20.5756H44.0099C42.2658 20.6469 40.519 20.6155 38.7786 20.4815H38.7273L38.6821 20.4498C36.9929 19.343 35.0985 18.5861 33.1113 18.2241C31.1241 17.862 29.0843 17.9021 27.1129 18.342L26.9906 18.364L26.9185 18.2663C26.005 17.0199 24.0644 17.9888 22.6471 18.6964C22.2719 18.8969 21.8839 19.0724 21.4855 19.2218L21.4463 19.234H21.406C19.7705 19.0726 18.1198 19.17 16.5147 19.5224C15.1439 19.845 15.0473 20.0111 14.623 21.4456C13.3935 25.8506 12.9791 30.4429 13.4002 34.9966C13.4028 35.379 13.512 35.7531 13.7156 36.0768C13.8596 36.2913 14.0459 36.4741 14.2631 36.6141C14.4803 36.754 14.7239 36.8481 14.9788 36.8906C15.0743 36.8968 15.17 36.8802 15.2577 36.8422C15.3456 36.8042 15.4231 36.7458 15.4838 36.6719C15.5758 36.5933 15.645 36.4916 15.6841 36.3772C15.7233 36.2629 15.731 36.1402 15.7064 36.0218C15.7064 35.9619 15.6991 35.8996 15.6978 35.8214C15.6791 35.3643 15.6383 34.9084 15.5755 34.4553C15.504 33.9522 15.4685 33.4447 15.4692 32.9365C15.4513 32.2316 15.5551 31.5289 15.7761 30.8592C16.0304 30.0753 16.5721 29.4166 17.2924 29.0153C17.5476 28.8362 17.8471 28.7301 18.1582 28.7085C18.4694 28.687 18.7806 28.7508 19.0582 28.8932C20.5537 29.7888 20.5255 33.6464 20.5133 35.2936V35.4976C20.6551 35.7102 20.8426 35.8883 21.0623 36.019C21.2819 36.1497 21.5281 36.2296 21.7826 36.2528C21.8153 36.2491 21.8484 36.2521 21.8799 36.2616C21.9115 36.271 21.9408 36.2867 21.9661 36.3077C22.0103 36.3573 22.0439 36.4154 22.0649 36.4784C22.086 36.5415 22.094 36.6081 22.0883 36.6743C22.0863 36.7052 22.0867 36.7363 22.0895 36.7671Z" fill="#373435"/>
<path d="M33.1451 32.8876C33.5375 32.8498 33.9251 32.7724 34.3019 32.6567C34.4912 33.7657 34.5474 34.8934 34.4694 36.0157C34.1839 36.0337 33.8995 35.9663 33.6525 35.822C33.4055 35.6776 33.2071 35.4631 33.0828 35.2056C33.0196 34.433 33.0405 33.6558 33.1451 32.8876Z" fill="#6978AB"/>
<path d="M34.4291 36.2112C34.1144 36.2219 33.8035 36.1411 33.5339 35.9787C33.2643 35.8162 33.0477 35.5791 32.9103 35.296L32.892 35.2617V35.2226C32.8281 34.4357 32.8494 33.6443 32.9556 32.8619L32.9752 32.7104L33.1268 32.6933C33.5062 32.6564 33.881 32.582 34.2457 32.4709L34.4462 32.4061L34.4951 32.6114C34.679 33.612 34.7394 34.6314 34.6748 35.6466L34.6651 36.2075H34.4768L34.4291 36.2112ZM33.2748 35.1481C33.3703 35.3363 33.513 35.4965 33.6889 35.6133C33.8648 35.7299 34.068 35.7991 34.2787 35.8141V35.6381C34.3313 34.7248 34.2903 33.8085 34.1564 32.9035C33.882 32.9756 33.6029 33.0287 33.3212 33.0623C33.2358 33.7559 33.2198 34.4563 33.2735 35.153L33.2748 35.1481Z" fill="#373435"/>
<path d="M15.3897 36.2319C15.1145 34.4309 14.8345 31.2527 16.1234 29.7375C16.2254 29.6002 16.3357 29.4692 16.4536 29.3452C18.4871 27.4318 20.259 29.0777 20.7395 31.1964C20.8414 32.536 20.8622 33.8805 20.8019 35.2227C20.9221 35.4561 21.1074 35.6496 21.3356 35.7799C21.5637 35.91 21.8248 35.9711 22.0871 35.9558C22.2742 36.3419 22.2241 36.6291 22.4368 36.8845C22.8407 37.3374 23.3704 37.66 23.9584 37.811C24.5464 37.962 25.1661 37.9347 25.7384 37.7324C26.1215 37.5702 26.4943 37.3849 26.8549 37.1777C27.1469 35.5387 27.1053 33.8576 26.7326 32.2351C26.7326 32.0102 26.658 31.8611 26.658 31.6363C26.798 31.6564 26.9296 31.7148 27.0383 31.805C26.7938 32.7018 30.1639 33.3189 34.0953 32.2351C34.1393 32.0787 34.0634 31.8856 34.1576 31.8294C34.2184 31.7913 34.2869 31.7672 34.3581 31.7585C34.4293 31.7498 34.5016 31.7569 34.5697 31.7793C34.588 32.0664 34.5942 32.3463 34.6137 32.6346C34.9186 32.6634 35.2253 32.6675 35.5308 32.6469C35.3303 32.8271 35.0666 32.9211 34.7971 32.9083C34.8656 32.9083 34.7592 33.0391 34.8216 33.0513C35.0026 33.0953 35.3462 33.0269 35.4893 33.0892C35.2214 33.2456 34.9219 33.1576 34.7409 33.3336C34.7849 34.2866 34.8094 35.3094 34.8473 36.2661C35.437 36.7135 36.1648 36.9402 36.9044 36.9072C37.644 36.8742 38.3487 36.5834 38.896 36.0853C39.0129 34.1708 38.972 32.2501 38.7738 30.3423C38.6307 30.324 38.4864 30.2983 38.3433 30.28C40.5774 27.2765 41.0078 24.2034 39.1357 21.4297C39.1174 21.3076 39.0355 21.1854 39.0134 21.0632C40.6422 21.0008 42.3151 21.1695 43.9488 21.1072C44.3898 21.274 44.8448 21.4012 45.3085 21.4872C45.7891 21.3185 45.8759 19.9854 45.4027 20.1345C44.9295 20.2836 44.669 20.5829 44.1616 20.7699C42.2894 20.7699 40.2118 20.6954 38.3409 20.6954C36.8135 19.481 35.0045 18.6708 33.0811 18.3396C31.1575 18.0083 29.1815 18.1668 27.3355 18.8002C27.904 20.0235 28.2248 21.3472 28.2794 22.6951C28.334 24.0428 28.1212 25.3881 27.6534 26.6534C27.547 27.0028 25.9317 28.0243 27.2536 26.9088C28.5889 25.7749 27.7525 17.8972 26.1114 17.8837C24.1803 17.9037 22.3266 18.6447 20.9144 19.961C20.6588 19.6873 20.6772 19.7984 20.7922 19.4123C19.3955 19.2922 17.9885 19.4162 16.6345 19.7789C16.2836 19.7901 15.9442 19.9068 15.6606 20.1136C15.377 20.3204 15.1625 20.6079 15.0449 20.9385C13.8108 25.3453 13.315 29.9258 13.5775 34.4944C13.6417 35.0422 13.7868 35.5775 14.0079 36.0829C14.7416 36.8869 15.1378 36.6559 15.3811 36.2319H15.3897Z" fill="url(#paint0_linear_32_828)"/>
<path d="M18.3171 21.2501C17.9057 21.0825 17.459 21.0199 17.0172 21.0681C16.9767 21.0636 16.9359 21.0734 16.9018 21.0957C16.8677 21.118 16.8424 21.1514 16.8301 21.1903C16.8138 21.2184 16.8031 21.2496 16.7989 21.2818C16.7947 21.3142 16.797 21.347 16.8057 21.3784C16.8436 21.4847 16.8497 21.4786 16.9426 21.5006C17.0658 21.519 17.1914 21.5081 17.3095 21.4689C17.4491 21.3954 17.6032 21.3533 17.7607 21.3457C17.9184 21.3381 18.0757 21.3651 18.2217 21.4249C18.3587 21.4187 18.3721 21.3625 18.3281 21.255L18.3171 21.2501Z" fill="#373435"/>
<path d="M17.0453 21.701C16.9969 21.7012 16.9486 21.6963 16.9011 21.6864H16.8852C16.8205 21.6798 16.7596 21.6524 16.7118 21.6084C16.664 21.5643 16.6317 21.5059 16.6198 21.442C16.6026 21.3845 16.5971 21.3242 16.6036 21.2646C16.6102 21.205 16.6285 21.1473 16.6578 21.095C16.6861 21.0274 16.7345 20.9702 16.7963 20.9308C16.8582 20.8915 16.9306 20.872 17.0038 20.875C17.4603 20.8268 17.9217 20.8892 18.3489 21.0571H18.4492L18.4993 21.1793C18.5274 21.2254 18.5421 21.2783 18.5416 21.3323C18.5412 21.3863 18.5256 21.439 18.4968 21.4847C18.4679 21.5303 18.4268 21.5669 18.3783 21.5905C18.3297 21.614 18.2755 21.6235 18.2217 21.6179H18.1924L18.1594 21.6082C18.0389 21.556 17.9084 21.5314 17.7773 21.5361C17.6461 21.5407 17.5177 21.5745 17.4012 21.635L17.3792 21.6485L17.3547 21.6546C17.2541 21.6834 17.1501 21.699 17.0453 21.701ZM16.9915 21.3064C17.0739 21.3148 17.1571 21.3065 17.2361 21.2819L17.3022 21.2489C17.2165 21.2489 17.1297 21.2489 17.0417 21.2624H17.0099L17.0026 21.277C16.9973 21.2861 16.9936 21.296 16.9915 21.3064ZM17.3095 22.7959C17.3654 22.6797 17.4536 22.582 17.5636 22.5146C17.6735 22.4473 17.8005 22.413 17.9295 22.4159C17.954 22.2595 17.9295 22.1715 17.729 22.1715C17.4442 22.3157 17.2009 22.5302 17.0221 22.7946C16.9195 23.0245 16.8868 23.2795 16.928 23.5278C16.9503 23.6975 17.0381 23.8518 17.1725 23.9579C17.3118 24.0449 17.4741 24.0879 17.6382 24.0812C17.8023 24.0744 17.9605 24.0182 18.0921 23.92C18.5299 23.6646 18.9676 22.9351 18.1985 22.6602C18.0443 22.6301 17.8857 22.6312 17.732 22.6633C17.5783 22.6954 17.4326 22.7579 17.3034 22.8471C17.2912 22.8533 17.285 22.8288 17.3034 22.7971L17.3095 22.7959Z" fill="#373435"/>
<path d="M17.5467 24.2853C17.365 24.2889 17.188 24.2273 17.0478 24.1118C16.8748 23.9729 16.7626 23.7722 16.7348 23.5521C16.685 23.2613 16.7277 22.9621 16.8571 22.6968C17.0527 22.4033 17.32 22.1645 17.6335 22.0028L17.6764 21.9771H17.7228C17.7828 21.9713 17.8433 21.9787 17.9002 21.9988C17.957 22.0189 18.0087 22.051 18.0518 22.0932C18.0888 22.1433 18.1143 22.2009 18.1265 22.2619C18.1387 22.3229 18.1375 22.3859 18.1227 22.4464C18.2887 22.4714 18.4433 22.5459 18.5664 22.6601C18.6894 22.7743 18.7752 22.923 18.8123 23.0866C18.8053 23.2937 18.7443 23.4954 18.6353 23.6718C18.5264 23.8482 18.3733 23.9931 18.1912 24.0923C17.9969 24.2118 17.7747 24.2784 17.5467 24.2853ZM17.1518 22.9828C17.1065 23.1549 17.0965 23.3345 17.1224 23.5106C17.1396 23.6309 17.2032 23.7397 17.2998 23.8137C17.5357 24.0104 17.9185 23.8002 17.9931 23.7562C18.1107 23.6934 18.2114 23.603 18.2863 23.4927C18.3613 23.3825 18.4084 23.2557 18.4235 23.1233C18.4125 23.0011 18.3147 22.9131 18.1337 22.8483C17.8793 22.81 17.6198 22.8703 17.4085 23.017L17.3927 23.0255L17.2618 23.0915L17.1542 22.9828H17.1518Z" fill="#373435"/>
<path d="M17.6495 23.6438C17.652 23.6884 17.6607 23.7324 17.6752 23.7746C17.6814 23.7943 17.69 23.8132 17.7008 23.8308C17.6651 23.8544 17.6242 23.8691 17.5816 23.8733C17.5389 23.8776 17.4959 23.8714 17.4562 23.8552C17.186 23.733 17.2056 23.3543 17.3437 23.149C17.4162 23.0431 17.5124 22.9556 17.6247 22.8937C17.737 22.8317 17.8624 22.7969 17.9906 22.7922C18.1349 22.8667 18.179 22.9363 18.1031 22.9546C18.0603 22.9628 18.019 22.9776 17.9808 22.9986C17.9518 23.0117 17.9259 23.0307 17.9048 23.0545C17.8837 23.0783 17.8679 23.1064 17.8585 23.1367C17.9209 23.155 17.9527 23.1367 18.0089 23.1612V23.3554C17.9489 23.3253 17.8803 23.3167 17.8145 23.331C17.6922 23.3689 17.6446 23.5436 17.6446 23.6499L17.6495 23.6438Z" fill="#FEFEFE"/>
<path d="M18.1667 28.6267C18.5131 28.5525 18.8414 28.4104 19.1324 28.2086C19.4235 28.0067 19.6715 27.7492 19.8623 27.4508C20.053 27.1525 20.1826 26.8193 20.2435 26.4706C20.3045 26.1219 20.2957 25.7645 20.2174 25.4192C19.9985 25.4147 19.784 25.3568 19.5925 25.2506C19.5803 25.17 19.5742 25.0881 19.5607 25.0062C20.067 25.2506 20.7835 25.3239 20.6906 24.5505C20.7591 24.5321 20.8655 24.526 20.9352 24.5065C20.9107 25.049 20.8129 25.0991 20.479 25.33C20.5751 25.9215 20.525 26.5275 20.3332 27.0952C20.1414 27.663 19.8137 28.1753 19.3786 28.5876C19.3526 28.7573 19.3677 28.9308 19.4226 29.0935C19.2625 28.9264 19.066 28.7983 18.8485 28.7193C18.6309 28.6403 18.398 28.6123 18.1679 28.6378L18.1667 28.6267Z" fill="#373435"/>
<path d="M19.7674 29.7656L19.2783 29.2254C19.1363 29.0793 18.9623 28.968 18.7702 28.9002C18.578 28.8324 18.3727 28.8099 18.1703 28.8344H17.9723V28.4923L18.1105 28.4374C18.7401 28.3083 19.2946 27.9392 19.6562 27.4083C20.0179 26.8774 20.1582 26.2266 20.0474 25.5939C19.8492 25.5792 19.6572 25.5176 19.4873 25.4143L19.4116 25.3667L19.3981 25.2799L19.381 25.1516L19.3663 25.0367L19.31 24.6702L19.6439 24.8315C19.756 24.9035 19.8828 24.9495 20.015 24.9665C20.1472 24.9834 20.2815 24.9707 20.4082 24.9292C20.4864 24.8743 20.5158 24.7545 20.495 24.5737L20.4766 24.4075L20.638 24.3635C20.686 24.3516 20.7346 24.3426 20.7835 24.3366C20.8165 24.3327 20.8492 24.3271 20.8814 24.3195L21.1406 24.2487L21.1284 24.5162C21.1027 25.0734 20.9804 25.2139 20.687 25.4229C20.7634 26.0169 20.701 26.6205 20.5047 27.1863C20.3085 27.7521 19.9837 28.2648 19.5558 28.6842C19.5561 28.7883 19.5705 28.8918 19.5986 28.9921L19.7674 29.7656ZM18.9114 28.5339C19.0003 28.5623 19.0863 28.5991 19.1682 28.6438C19.1719 28.6022 19.1805 28.5612 19.1939 28.5216L19.2073 28.4825L19.2355 28.452C19.3398 28.3404 19.4364 28.2284 19.5252 28.116C19.3374 28.2784 19.1315 28.4186 18.9114 28.5339Z" fill="#373435"/>
<path d="M37.529 36.8796C37.4984 36.4189 37.4421 36.0145 37.4287 35.5526C37.3981 34.4944 36.5935 34.2635 36.5495 35.3216C36.525 35.8764 36.5495 36.3994 36.5495 36.9223C36.8759 36.967 37.2076 36.9524 37.529 36.8796Z" fill="#8093D0"/>
<path d="M37.0178 37.0103C36.8955 37.0103 36.7806 37.003 36.6644 36.9956L36.481 36.9858V36.4055C36.481 36.056 36.47 35.6943 36.481 35.3216C36.5042 34.7681 36.7255 34.5714 36.9224 34.5714C37.1829 34.5714 37.469 34.9172 37.4886 35.5489C37.496 35.8312 37.5204 36.089 37.5449 36.3615C37.5607 36.5276 37.5754 36.6963 37.5877 36.8723V36.9248L37.5375 36.9394C37.3685 36.9875 37.1935 37.0113 37.0178 37.0103ZM36.6155 36.8637H36.6742C36.9365 36.8945 37.202 36.8826 37.4605 36.8283C37.4495 36.6719 37.4348 36.5215 37.4213 36.3737C37.3956 36.0988 37.3724 35.8397 37.3639 35.5526C37.348 35.0259 37.1193 34.6973 36.9273 34.6973C36.7953 34.6973 36.6351 34.861 36.6155 35.3229C36.5984 35.6894 36.6045 36.056 36.6155 36.3993C36.613 36.5557 36.6155 36.7085 36.6155 36.8637Z" fill="#373435"/>
<path d="M36.5641 36.9333C36.4754 36.4018 36.4422 35.8625 36.4651 35.3241C36.5335 34.3465 35.6091 33.3165 35.5467 35.131C35.5241 35.6613 35.545 36.1926 35.6091 36.7194C35.9214 36.8154 36.2407 36.8869 36.5641 36.9333Z" fill="#8093D0"/>
<path d="M36.6387 37.0116L36.5543 36.9982C36.2272 36.9523 35.9042 36.8809 35.5883 36.7843L35.5492 36.7708V36.7306C35.4845 36.1996 35.4636 35.6642 35.4868 35.1298C35.5064 34.5446 35.6091 34.1975 35.8085 34.0973C35.8539 34.0746 35.9049 34.0652 35.9555 34.0702C36.0062 34.0752 36.0543 34.0943 36.0946 34.1255C36.2545 34.2796 36.3774 34.468 36.4539 34.6765C36.5303 34.885 36.5585 35.1081 36.536 35.329C36.5084 35.8009 36.5309 36.2744 36.6033 36.7415L36.6387 37.0116ZM35.6678 36.6731C35.9368 36.753 36.2109 36.8142 36.4883 36.8564L36.4761 36.755C36.4005 36.2808 36.3747 35.8 36.3991 35.3205C36.4198 35.1224 36.3962 34.9221 36.33 34.7343C36.2638 34.5464 36.1567 34.3756 36.0163 34.2342C35.9954 34.2163 35.9697 34.2048 35.9425 34.2009C35.9152 34.197 35.8874 34.2009 35.8623 34.2122C35.795 34.2464 35.636 34.4065 35.6103 35.1335C35.5884 35.6474 35.6077 36.1622 35.6678 36.6731Z" fill="#373435"/>
<path d="M35.6103 36.8025L35.4795 34.7253C35.3853 33.1747 34.7617 33.3555 34.7116 34.6324C34.6871 35.236 34.736 35.566 34.6797 36.1708C34.9732 36.37 35.279 36.7622 35.6103 36.794V36.8025Z" fill="#8093D0"/>
<path d="M35.6042 36.8637C35.3425 36.7998 35.1061 36.6589 34.9255 36.4592C34.8365 36.3771 34.7425 36.3004 34.6443 36.2295L34.6125 36.2075V36.1696C34.6381 35.8771 34.6466 35.5834 34.6382 35.2899V34.6349C34.6638 33.9836 34.8363 33.5609 35.0772 33.5584C35.3217 33.5584 35.4905 33.9946 35.5345 34.7266L35.6654 36.8038H35.5993L35.6042 36.8637ZM34.7482 36.144C34.8363 36.2075 34.9243 36.2857 35.0111 36.3614C35.1607 36.5158 35.3406 36.6377 35.5394 36.7195L35.4171 34.7351C35.3707 33.9665 35.1958 33.6891 35.0894 33.6891C34.9793 33.6891 34.8045 33.9934 34.78 34.641C34.769 34.8854 34.7727 35.0944 34.78 35.2899C34.7848 35.5741 34.7742 35.8584 34.7482 36.1415V36.144Z" fill="#373435"/>
<path d="M24.9436 37.8754C24.9602 37.3891 24.9352 36.9022 24.869 36.4201C24.6074 35.296 24.2772 35.1579 23.8908 35.9888V37.8559C24.2403 37.9037 24.5943 37.9078 24.9449 37.8681L24.9436 37.8754Z" fill="#8093D0"/>
<path d="M24.5486 37.9634C24.3457 37.9634 24.1426 37.9451 23.9433 37.9268L23.821 37.9158V35.9607C24.0082 35.5587 24.1879 35.3718 24.3689 35.3913C24.5915 35.4145 24.7675 35.7359 24.9228 36.4043L24.935 36.5106C24.9953 36.9633 25.017 37.4203 24.9998 37.8767H24.9363L24.9448 37.9329C24.8138 37.9534 24.6813 37.9636 24.5486 37.9634ZM23.9543 37.7972C24.2614 37.8366 24.5718 37.8419 24.88 37.8131C24.8922 37.3832 24.8701 36.9529 24.814 36.5264L24.803 36.4275C24.6245 35.6613 24.4508 35.5306 24.364 35.5221C24.2967 35.5221 24.1585 35.5697 23.9543 36.0047V37.7972Z" fill="#373435"/>
<path d="M23.0299 37.5674C23.036 36.8514 23.0421 36.3773 23.0421 35.6612C23.3038 34.608 23.5716 34.7143 23.8333 35.9789C23.8394 36.6583 23.8455 37.1007 23.8455 37.7788C23.5593 37.7677 23.2787 37.6956 23.0225 37.5674H23.0299Z" fill="#8093D0"/>
<path d="M23.9067 37.8522L23.7966 37.84C23.5141 37.8263 23.2377 37.7526 22.9859 37.6237L22.7719 37.5015H22.9602V37.1349C22.9602 36.634 22.9687 36.2198 22.9687 35.6552V35.6393C23.1008 35.109 23.2304 34.8719 23.3906 34.8719C23.5129 34.8719 23.6853 35.0003 23.8797 35.9595V36.3822C23.8797 36.8527 23.8883 37.2376 23.8883 37.774L23.9067 37.8522ZM23.0911 37.5321C23.3064 37.6333 23.5394 37.6922 23.777 37.7056C23.777 37.2095 23.777 36.8368 23.7685 36.3884V35.979C23.5765 35.0589 23.4297 35.0088 23.4016 35.0088C23.3735 35.0088 23.2683 35.0235 23.1069 35.6686C23.1069 36.2295 23.1069 36.6462 23.0984 37.1423L23.0911 37.5321Z" fill="#373435"/>
<path d="M22.0516 36.1586C22.0895 35.5599 22.2143 34.955 22.2509 34.3563C22.0064 33.171 21.7398 32.9596 21.4598 33.7331C21.4475 34.5005 21.4415 35.274 21.4292 36.0413C21.6142 36.1592 21.837 36.2029 22.0529 36.1635L22.0516 36.1586Z" fill="#8093D0"/>
<path d="M21.8963 36.2527C21.747 36.2451 21.6014 36.2032 21.4708 36.1306L21.3681 36.0841V36.0413C21.3746 35.6576 21.3799 35.2731 21.3839 34.8879C21.388 34.5025 21.3933 34.1176 21.3998 33.7331V33.7123C21.5221 33.3617 21.6518 33.204 21.7985 33.2138C21.9453 33.2236 22.1152 33.3617 22.317 34.3453V34.3624C22.2986 34.6643 22.2571 34.9734 22.2167 35.2679C22.1763 35.5624 22.136 35.8666 22.1176 36.1623V36.2185L22.0663 36.2295C22.0106 36.2431 21.9536 36.2509 21.8963 36.2527ZM21.5002 36.0084L21.5246 36.0193C21.6661 36.1038 21.8317 36.139 21.9953 36.1195C22.0149 35.8324 22.054 35.5403 22.0932 35.2581C22.1323 34.9758 22.1727 34.6643 22.1922 34.3698C22.0002 33.4375 21.8388 33.3544 21.7936 33.3507C21.7692 33.3507 21.6713 33.3714 21.5307 33.7539C21.5242 34.1335 21.5189 34.5144 21.5148 34.8964C21.5107 35.2785 21.5058 35.6458 21.5002 35.9986V36.0084Z" fill="#373435"/>
<path d="M33.6942 35.9692C33.7443 35.3327 33.6758 34.8023 33.6942 34.1792C33.7125 33.424 34.4596 33.6427 34.4915 34.3356C34.5232 35.0284 34.5599 35.3839 34.5978 36.0756C34.295 36.1268 33.9839 36.0899 33.7015 35.9692H33.6942Z" fill="#8093D0"/>
<path d="M34.2346 36.1525C34.0434 36.1593 33.8536 36.1172 33.6832 36.0303H33.6293V35.9607C33.6512 35.6206 33.6537 35.2795 33.6367 34.9392C33.6293 34.6948 33.6208 34.4419 33.6293 34.1743C33.6391 33.7808 33.8335 33.6391 34.0121 33.6378C34.2567 33.6378 34.5342 33.9006 34.5526 34.3295C34.5709 34.6826 34.5893 34.9404 34.6064 35.2105C34.6235 35.4805 34.6406 35.7273 34.6589 36.0658V36.1318L34.4694 36.1391C34.3915 36.1485 34.3131 36.153 34.2346 36.1525ZM33.7614 35.9277C33.9852 36.0202 34.2298 36.0506 34.4694 36.0157H34.5281C34.5133 35.7517 34.497 35.4878 34.4792 35.2239C34.4621 34.9587 34.445 34.6948 34.4254 34.3405C34.4058 33.9861 34.2016 33.7723 34.0145 33.7723C33.8617 33.7723 33.77 33.9274 33.7602 34.1828C33.7504 34.4382 33.7602 34.6973 33.7675 34.9404C33.7826 35.2694 33.7806 35.5989 33.7614 35.9277Z" fill="#373435"/>
<path d="M33.655 35.9925C33.6367 35.5257 33.6428 34.9649 33.6245 34.4981C33.6685 33.8566 33.2258 32.9096 33.0522 33.9629C32.9971 34.3529 32.9639 34.7458 32.9531 35.1396C33.1546 35.4491 33.3901 35.7351 33.655 35.9925Z" fill="#B9C5EA"/>
<path d="M33.7247 36.1245L33.6159 36.0463C33.4007 35.8567 33.2127 35.6383 33.0571 35.3975C33.0063 35.3256 32.9541 35.2547 32.9005 35.1848L32.8846 35.1653V35.1408C32.8932 35.0187 32.8993 34.8965 32.9042 34.7987C32.9134 34.517 32.9404 34.2363 32.9849 33.958C33.0069 33.8212 33.0754 33.4057 33.2943 33.4326C33.5388 33.462 33.7137 34.1144 33.6868 34.5079C33.6966 34.7352 33.6991 34.9967 33.7027 35.2496C33.7064 35.5025 33.7088 35.7628 33.7186 35.9949L33.7247 36.1245ZM33.0179 35.1201C33.0607 35.1751 33.1096 35.2422 33.1634 35.318C33.2902 35.5051 33.4312 35.6819 33.5853 35.8471C33.5853 35.654 33.5768 35.4475 33.5743 35.2471C33.5743 34.9955 33.5682 34.7339 33.5584 34.5018C33.589 34.0472 33.3873 33.5695 33.2808 33.5572C33.2576 33.5499 33.1732 33.6233 33.1145 33.9739C33.0707 34.2473 33.0442 34.5232 33.035 34.7999L33.0179 35.1189V35.1201ZM28.096 27.4049C28.414 25.8898 28.7258 24.3746 29.0438 22.8533C29.0939 22.4978 29.1868 22.1801 29.561 22.1483H30.0159C30.2898 22.1483 30.4463 22.3108 30.4708 22.637L30.3779 23.3103C30.3901 23.5852 30.5588 23.7405 30.8951 23.7661C31.35 23.7844 31.8122 23.8101 32.2671 23.8284C32.9531 23.8724 33.4141 24.1657 33.3676 25.0198L32.9372 27.2766C32.9294 27.451 32.8702 27.6192 32.7671 27.76C32.664 27.9009 32.5216 28.0082 32.3576 28.0684C32.1522 28.0562 31.921 28.0807 31.7156 28.0684C31.3598 28.0867 31.1543 27.956 31.2852 27.488C31.4161 26.8954 31.5787 26.1537 31.7156 25.5611C31.7658 24.856 31.504 24.8194 31.2265 24.7693C30.9893 24.7375 30.7594 24.7693 30.5221 24.7375C30.1724 24.7876 30.0415 25.1237 29.9425 25.4988C29.7933 26.128 29.6368 26.7585 29.4877 27.3939C29.4192 27.7373 29.3446 27.9609 29.089 28.0672H28.3284C28.0415 28.0045 27.9599 27.7801 28.0838 27.3939L28.096 27.4049Z" fill="#373435"/>
<path d="M31.8453 28.2003H31.712C31.6201 28.2158 31.5259 28.2087 31.4375 28.1795C31.349 28.1503 31.2691 28.1 31.2045 28.033C31.1504 27.9477 31.1177 27.8505 31.1094 27.7498C31.1011 27.6492 31.1174 27.548 31.1568 27.455L31.2314 27.1153C31.3451 26.5997 31.4759 26.0242 31.5835 25.5439C31.6215 24.9757 31.4686 24.9476 31.2167 24.9012C30.9893 24.8707 30.7704 24.9012 30.5258 24.8719C30.2813 24.9158 30.17 25.159 30.0697 25.5342L29.8667 26.3761L29.6148 27.4269C29.5317 27.7788 29.4644 28.0549 29.1391 28.1906L29.1147 28.2003H28.3003C28.2311 28.1891 28.1652 28.163 28.1069 28.124C28.0487 28.085 27.9995 28.034 27.9628 27.9743C27.92 27.8781 27.898 27.7741 27.898 27.6688C27.898 27.5636 27.92 27.4596 27.9628 27.3634L28.0031 27.2412L28.4922 24.8719L28.9141 22.8423C28.9484 22.5979 29.0205 22.0786 29.5488 22.0346H30.0147C30.2152 22.0346 30.5588 22.1128 30.5992 22.6456V22.659L30.505 23.3335C30.5136 23.4716 30.571 23.6292 30.9012 23.6537L31.5873 23.6842L32.2683 23.7147C32.4424 23.6985 32.6179 23.7226 32.7811 23.7853C32.9443 23.8479 33.0908 23.9474 33.2092 24.076C33.3275 24.2046 33.4146 24.3588 33.4635 24.5265C33.5124 24.6942 33.5219 24.8709 33.4912 25.0429V25.0601L33.0607 27.3181C33.0487 27.5149 32.9795 27.7039 32.8615 27.8618C32.7436 28.0199 32.582 28.1401 32.3967 28.2077L32.3723 28.2162H32.036C31.9737 28.1979 31.9088 28.2003 31.8453 28.2003ZM31.7132 27.9364H32.3356C32.4712 27.8802 32.5878 27.7861 32.6712 27.6654C32.7547 27.5447 32.8016 27.4025 32.8064 27.2558L33.2356 25.0026C33.2735 24.3159 32.9813 24.0031 32.2574 23.9579L31.5775 23.9274L30.889 23.8956C30.3509 23.8552 30.2556 23.5156 30.247 23.3164V23.3005L30.34 22.6297C30.3118 22.3169 30.1516 22.2765 30.0159 22.2765H29.561C29.336 22.2961 29.2308 22.4513 29.1721 22.8692L28.7478 24.9073C28.5734 25.7488 28.3981 26.5895 28.222 27.4293L28.1731 27.6652L28.1585 27.6505C28.1492 27.7135 28.159 27.7777 28.1866 27.835C28.204 27.8613 28.2267 27.8835 28.2532 27.9006C28.2798 27.9176 28.3095 27.929 28.3406 27.934H29.0585C29.2333 27.8509 29.2932 27.6896 29.3568 27.3645L29.6099 26.3076L29.8129 25.4633C29.8875 25.1847 30.0232 24.6715 30.5014 24.6079H30.5368C30.7594 24.6372 30.9917 24.6079 31.2412 24.6397H31.2583C31.608 24.7033 31.8929 24.8169 31.8404 25.5671V25.5879C31.729 26.0693 31.5958 26.6485 31.487 27.1666L31.4099 27.5137C31.361 27.6884 31.361 27.8081 31.4099 27.8668C31.4588 27.9255 31.6019 27.9413 31.7071 27.9364H31.7132Z" fill="#FEFEFE"/>
<path d="M22.2033 29.1583C22.5151 27.5429 22.833 25.9275 23.146 24.3183C23.142 24.2452 23.1534 24.172 23.1796 24.1036C23.2057 24.0352 23.246 23.9731 23.2978 23.9213C23.3497 23.8695 23.4118 23.8292 23.4803 23.8031C23.5488 23.777 23.6219 23.7656 23.6951 23.7697H26.5663C26.8399 23.7616 27.1105 23.8282 27.349 23.9623C27.5875 24.0965 27.7849 24.293 27.92 24.5309C28.1122 24.8787 28.1929 25.2771 28.1511 25.6722C28.0897 26.3505 27.7889 26.985 27.3025 27.4623C26.9041 27.7983 26.4162 28.0107 25.8987 28.0732C25.4095 28.0855 24.9204 28.0916 24.4313 28.105C24.15 28.0806 23.87 28.1551 23.8015 28.38C23.7147 28.6854 23.6523 28.9909 23.5643 29.2902C23.5337 29.3577 23.489 29.4177 23.433 29.4662C23.3771 29.5147 23.3113 29.5506 23.2402 29.5713C22.959 29.5774 22.6728 29.5774 22.3916 29.5835C22.0908 29.5884 22.1531 29.41 22.2033 29.1583ZM24.2063 26.3895C24.287 25.9655 24.3873 25.4852 24.4618 25.1113C24.5016 24.9993 24.5767 24.9032 24.6755 24.8371C24.7745 24.7711 24.892 24.7387 25.0109 24.7447C25.3069 24.7237 25.6042 24.762 25.8852 24.8571C26.0082 24.9068 26.1193 24.982 26.2111 25.0778C26.3029 25.1736 26.3733 25.2878 26.4175 25.4128C26.4618 25.5378 26.479 25.6708 26.468 25.8029C26.4569 25.935 26.4179 26.0633 26.3536 26.1793C26.2448 26.3834 26.0967 26.564 25.918 26.7108C25.7392 26.8576 25.5331 26.9676 25.3117 27.0346C25.1083 27.0877 24.8979 27.1087 24.688 27.0969C24.1512 27.0407 24.1072 26.8978 24.1989 26.3858L24.2063 26.3895Z" fill="#373435"/>
<path d="M22.3769 29.7131C22.3248 29.7184 22.2723 29.7118 22.2231 29.6937C22.174 29.6757 22.1296 29.6469 22.0932 29.6093C22.0002 29.4981 22.0321 29.3477 22.0651 29.1889L22.0761 29.1339C22.2481 28.2444 22.4213 27.3548 22.5958 26.4653L23.0152 24.3123C23.0099 24.228 23.0223 24.1436 23.0513 24.0643C23.0803 23.985 23.1255 23.9126 23.1839 23.8516C23.2504 23.782 23.3309 23.7271 23.42 23.6907C23.5091 23.6542 23.605 23.637 23.7012 23.6402H26.5663C26.8638 23.6312 27.158 23.704 27.4167 23.8507C27.6755 23.9975 27.889 24.2125 28.0337 24.4724C28.2365 24.8413 28.3218 25.2633 28.2783 25.682C28.2145 26.3912 27.9008 27.0546 27.3929 27.554L27.3783 27.5675C26.9616 27.9178 26.4516 28.1391 25.9109 28.204C25.6589 28.2114 25.4132 28.2151 25.1686 28.2199L24.4349 28.2358H24.4203C24.2234 28.2187 23.9752 28.2554 23.9311 28.4191C23.8871 28.5829 23.8516 28.7172 23.8088 28.8676C23.766 29.0179 23.733 29.173 23.6866 29.3282C23.6521 29.4154 23.5983 29.4937 23.5293 29.5571C23.4602 29.6206 23.3777 29.6677 23.2879 29.6948L23.2647 29.7045H23.2402L22.8183 29.7107L22.3915 29.7168L22.3769 29.7131ZM22.295 29.4443C22.3252 29.4524 22.3567 29.4553 22.3879 29.4529L22.8183 29.4467H23.2121C23.3442 29.3881 23.42 29.3245 23.4408 29.2586C23.4835 29.1083 23.5203 28.9592 23.563 28.8089C23.6058 28.6586 23.6388 28.5034 23.6853 28.3495C23.7648 28.088 24.0522 27.9475 24.4447 27.9829L25.171 27.967L25.9047 27.9511C26.3917 27.8892 26.8502 27.6881 27.2254 27.372C27.6862 26.9176 27.9717 26.3152 28.0313 25.6711C28.0711 25.2991 27.995 24.9241 27.8136 24.597C27.6868 24.3813 27.5044 24.2036 27.2854 24.0824C27.0665 23.9612 26.819 23.9009 26.5687 23.9078H23.6951C23.6352 23.9054 23.5756 23.9158 23.5201 23.9384C23.4646 23.9609 23.4147 23.9951 23.3735 24.0386C23.3381 24.0747 23.311 24.1182 23.2942 24.1659C23.2772 24.2136 23.2709 24.2643 23.2757 24.3147V24.3514L22.8526 26.5227L22.3328 29.1913L22.3207 29.2488C22.302 29.3147 22.2938 29.3831 22.2962 29.4516L22.295 29.4443ZM24.8042 27.2302H24.6746C24.5714 27.2327 24.4687 27.2146 24.3726 27.1771C24.2764 27.1396 24.1887 27.0833 24.1145 27.0115C24.0057 26.8661 24.0155 26.673 24.0717 26.3663L24.1158 26.1219L24.1243 26.1305C24.1671 25.9117 24.2136 25.6869 24.2564 25.4756L24.3457 25.0564C24.3964 24.9206 24.4893 24.8047 24.6108 24.7255C24.7322 24.6464 24.8759 24.6082 25.0207 24.6165C25.3295 24.5959 25.6392 24.6374 25.9317 24.7387C26.0608 24.785 26.1788 24.8577 26.2782 24.9522C26.3776 25.0466 26.4562 25.1608 26.5088 25.2874C26.567 25.4397 26.5937 25.6022 26.5874 25.7652C26.5811 25.9282 26.5419 26.0881 26.4721 26.2356L26.4636 26.2515C26.3469 26.4689 26.1884 26.6612 25.9973 26.8174C25.8061 26.9737 25.586 27.0906 25.3496 27.1618C25.1705 27.2044 24.9871 27.2274 24.803 27.2302H24.8042ZM24.2992 26.6046C24.28 26.6866 24.2891 26.7727 24.3248 26.849C24.3676 26.9052 24.4875 26.9419 24.7015 26.9651C24.8975 26.9748 25.0937 26.9546 25.2835 26.9052C25.4868 26.843 25.6758 26.7413 25.8396 26.6061C26.0035 26.4709 26.1391 26.3047 26.2386 26.117C26.2923 26.003 26.3226 25.8794 26.3278 25.7536C26.3331 25.6277 26.3131 25.502 26.2692 25.3839C26.2295 25.2905 26.1709 25.2063 26.097 25.1367C26.0232 25.067 25.9356 25.0135 25.8399 24.9794C25.5749 24.8902 25.2947 24.8548 25.0158 24.8756C24.9233 24.868 24.8309 24.8915 24.7533 24.9424C24.6758 24.9934 24.6175 25.0688 24.5877 25.1566L24.5132 25.5232C24.4545 25.8116 24.3909 26.1256 24.3359 26.414L24.2992 26.6046Z" fill="#FEFEFE"/>
<path d="M33.1121 29.1583C33.4239 27.5429 33.7418 25.9275 34.0549 24.3183C34.0508 24.2452 34.0623 24.172 34.0884 24.1036C34.1146 24.0352 34.1549 23.9731 34.2067 23.9213C34.2585 23.8695 34.3207 23.8292 34.3891 23.8031C34.4575 23.777 34.5308 23.7656 34.604 23.7697H37.4752C37.7487 23.7616 38.0193 23.8282 38.2578 23.9623C38.4963 24.0965 38.6937 24.293 38.8288 24.5309C39.021 24.8787 39.1017 25.2771 39.0599 25.6722C38.9985 26.3505 38.6977 26.985 38.2113 27.4623C37.813 27.7983 37.325 28.0107 36.8075 28.0732C36.3183 28.0855 35.8292 28.0916 35.3401 28.105C35.0588 28.0806 34.7788 28.1551 34.7103 28.38C34.6235 28.6854 34.5612 28.9909 34.4731 29.2902C34.4425 29.3577 34.3978 29.4177 34.3418 29.4662C34.2859 29.5147 34.2202 29.5506 34.1491 29.5713C33.8678 29.5774 33.5817 29.5774 33.3004 29.5835C32.9996 29.5884 33.0571 29.41 33.1121 29.1583ZM35.1151 26.3895C35.1958 25.9655 35.296 25.4852 35.3707 25.1113C35.4105 24.9993 35.4854 24.9032 35.5844 24.8371C35.6833 24.7711 35.8009 24.7387 35.9197 24.7447C36.2157 24.7237 36.5129 24.762 36.794 24.8571C36.9171 24.9068 37.0282 24.982 37.1199 25.0778C37.2117 25.1736 37.282 25.2878 37.3263 25.4128C37.3706 25.5378 37.3878 25.6708 37.3768 25.8029C37.3658 25.935 37.3268 26.0633 37.2623 26.1793C37.1536 26.3834 37.0056 26.564 36.8268 26.7108C36.648 26.8576 36.442 26.9676 36.2205 27.0346C36.0172 27.0877 35.8068 27.1087 35.5969 27.0969C35.0601 27.0407 35.0161 26.8978 35.1078 26.3858L35.1151 26.3895Z" fill="#373435"/>
<path d="M33.2857 29.7131C33.2337 29.7183 33.1811 29.7116 33.132 29.6936C33.0829 29.6757 33.0384 29.6468 33.002 29.6093C32.9091 29.4981 32.9409 29.3477 32.9739 29.1889L32.9849 29.1339C33.1561 28.2469 33.3286 27.3606 33.5022 26.475L33.9241 24.3123C33.9188 24.228 33.9311 24.1436 33.9601 24.0643C33.9892 23.985 34.0343 23.9126 34.0928 23.8516C34.1592 23.782 34.2397 23.7271 34.3288 23.6907C34.418 23.6542 34.5138 23.637 34.6101 23.6402H37.4752C37.7725 23.6312 38.0668 23.704 38.3256 23.8507C38.5844 23.9975 38.7978 24.2125 38.9425 24.4724C39.1452 24.8413 39.2305 25.2633 39.1871 25.682C39.1233 26.3911 38.8095 27.0545 38.3018 27.554L38.2871 27.5675C37.8704 27.9178 37.3604 28.1391 36.8197 28.204C36.5678 28.2114 36.322 28.2151 36.0774 28.2199L35.3438 28.2358H35.329C35.131 28.2187 34.884 28.2554 34.84 28.4191C34.796 28.5829 34.7605 28.7172 34.7176 28.8663C34.6748 29.0154 34.6418 29.173 34.5953 29.327C34.5608 29.4142 34.5071 29.4924 34.438 29.5559C34.369 29.6194 34.2865 29.6664 34.1967 29.6936L34.1735 29.7034H34.1491L33.7272 29.7094L33.3004 29.7156L33.2857 29.7131ZM33.2038 29.4443C33.2341 29.4521 33.2655 29.455 33.2967 29.4529L33.7272 29.4467H34.121C34.253 29.3881 34.3288 29.3245 34.3496 29.2586C34.3924 29.1083 34.4303 28.958 34.4719 28.8089C34.5134 28.6598 34.5477 28.5047 34.5942 28.3507C34.6737 28.0892 34.961 27.9487 35.3536 27.9841L36.0799 27.9683L36.8136 27.9524C37.3004 27.8904 37.759 27.6893 38.1342 27.3731C38.5951 26.9188 38.8805 26.3164 38.9401 25.6722C38.98 25.3004 38.9039 24.9253 38.7224 24.5982C38.5956 24.3826 38.4132 24.2048 38.1942 24.0836C37.9753 23.9624 37.7278 23.9021 37.4776 23.909H34.604C34.5441 23.9065 34.4843 23.9168 34.4288 23.9393C34.3733 23.962 34.3234 23.9962 34.2824 24.0398C34.247 24.0759 34.2198 24.1194 34.2029 24.1671C34.186 24.2147 34.1798 24.2656 34.1845 24.316V24.3526L33.7602 26.5337L33.2429 29.1926L33.2307 29.25C33.2121 29.3159 33.2038 29.3844 33.2062 29.4529L33.2038 29.4443ZM35.713 27.2302H35.5835C35.4802 27.2327 35.3776 27.2146 35.2814 27.1771C35.1852 27.1396 35.0975 27.0833 35.0234 27.0115C34.9145 26.8661 34.9243 26.673 34.9806 26.3663L35.0246 26.1219L35.0332 26.1305C35.0759 25.9106 35.1224 25.6845 35.1652 25.4718L35.2545 25.0552C35.3047 24.9191 35.3975 24.8028 35.5191 24.7236C35.6407 24.6443 35.7846 24.6063 35.9295 24.6153C36.2382 24.595 36.548 24.6366 36.8405 24.7375C36.9696 24.7838 37.0876 24.8565 37.187 24.951C37.2864 25.0454 37.3649 25.1596 37.4177 25.2861C37.4758 25.4385 37.5025 25.601 37.4962 25.764C37.49 25.9269 37.4508 26.0869 37.381 26.2343L37.3724 26.2502C37.2558 26.4677 37.0973 26.66 36.9061 26.8162C36.715 26.9724 36.4949 27.0895 36.2585 27.1606C36.0797 27.2035 35.8968 27.2268 35.713 27.2302ZM35.2068 26.6058C35.1877 26.6878 35.1967 26.7739 35.2325 26.8502C35.2752 26.9064 35.3951 26.943 35.6091 26.9663C35.8051 26.9759 36.0013 26.9557 36.1912 26.9064C36.3944 26.8442 36.5834 26.7426 36.7472 26.6073C36.9111 26.4721 37.0467 26.3059 37.1462 26.1183C37.1999 26.0042 37.2302 25.8806 37.2354 25.7547C37.2407 25.6288 37.2207 25.5032 37.1768 25.3851C37.1371 25.2917 37.0785 25.2075 37.0046 25.1379C36.9308 25.0683 36.8432 25.0147 36.7475 24.9807C36.4825 24.8913 36.2023 24.8559 35.9234 24.8768C35.8309 24.8694 35.7386 24.893 35.6611 24.9439C35.5836 24.9948 35.5253 25.0701 35.4953 25.1579L35.4208 25.5244C35.3621 25.814 35.2985 26.1293 35.2435 26.4176L35.2068 26.6058Z" fill="#FEFEFE"/>
<mask id="path-36-inside-1_32_828" fill="white">
<path d="M14.623 36.5044C14.4768 36.3641 14.353 36.2021 14.2561 36.0242C14.1052 35.7496 14.032 35.4391 14.0446 35.1261C13.7266 29.7094 14.0067 24.972 15.7345 21.101C15.946 20.6269 15.9791 20.4839 16.4205 20.2652C17.7691 19.7711 19.2158 19.6036 20.6417 19.7765C20.6857 19.6543 20.7726 19.5321 20.7346 19.4099C19.4442 19.3067 18.1456 19.4098 16.8877 19.7153C16.0317 19.8522 15.1977 20.0025 14.9922 21.3613C13.2656 25.93 13.3904 30.2568 13.5701 34.5078C13.5688 34.8144 13.615 35.1195 13.7071 35.412C14.0433 36.4837 14.3686 36.447 14.6242 36.5032L14.623 36.5044ZM21.2543 35.8262C21.2543 34.6984 21.1614 33.5706 21.1614 32.4379C21.1157 31.7916 20.9752 31.1555 20.7444 30.5501C20.4943 30.1096 20.208 29.6906 19.8884 29.2976C20.86 31.1426 21.1625 33.2668 20.7444 35.3094C20.9181 35.4829 21.0734 35.6576 21.2543 35.8262Z"/>
</mask>
<path d="M14.623 36.5044C14.4768 36.3641 14.353 36.2021 14.2561 36.0242C14.1052 35.7496 14.032 35.4391 14.0446 35.1261C13.7266 29.7094 14.0067 24.972 15.7345 21.101C15.946 20.6269 15.9791 20.4839 16.4205 20.2652C17.7691 19.7711 19.2158 19.6036 20.6417 19.7765C20.6857 19.6543 20.7726 19.5321 20.7346 19.4099C19.4442 19.3067 18.1456 19.4098 16.8877 19.7153C16.0317 19.8522 15.1977 20.0025 14.9922 21.3613C13.2656 25.93 13.3904 30.2568 13.5701 34.5078C13.5688 34.8144 13.615 35.1195 13.7071 35.412C14.0433 36.4837 14.3686 36.447 14.6242 36.5032L14.623 36.5044ZM21.2543 35.8262C21.2543 34.6984 21.1614 33.5706 21.1614 32.4379C21.1157 31.7916 20.9752 31.1555 20.7444 30.5501C20.4943 30.1096 20.208 29.6906 19.8884 29.2976C20.86 31.1426 21.1625 33.2668 20.7444 35.3094C20.9181 35.4829 21.0734 35.6576 21.2543 35.8262Z" fill="#EBEFFF"/>
<path d="M14.623 36.5044L13.2382 37.9475L14.6139 39.2676L15.9982 37.9565L14.623 36.5044ZM14.2561 36.0242L16.0127 35.068L16.0089 35.061L14.2561 36.0242ZM14.0446 35.1261L16.043 35.206L16.0469 35.1074L16.0411 35.0089L14.0446 35.1261ZM15.7345 21.101L17.5609 21.9162L17.561 21.9158L15.7345 21.101ZM16.4205 20.2652L15.7325 18.3873L15.6302 18.4248L15.5325 18.4732L16.4205 20.2652ZM20.6417 19.7765L20.401 21.7619L21.9831 21.9537L22.5233 20.4544L20.6417 19.7765ZM20.7346 19.4099L22.6446 18.8166L22.2431 17.5242L20.8941 17.4163L20.7346 19.4099ZM16.8877 19.7153L17.2034 21.6903L17.2822 21.6777L17.3598 21.6588L16.8877 19.7153ZM14.9922 21.3613L16.8631 22.0683L16.9381 21.87L16.9698 21.6603L14.9922 21.3613ZM13.5701 34.5078L15.5701 34.5163L15.5703 34.4698L15.5683 34.4233L13.5701 34.5078ZM13.7071 35.412L15.6153 34.8132L15.6149 34.8119L13.7071 35.412ZM14.6242 36.5032L15.9995 37.9553L18.739 35.3608L15.054 34.5499L14.6242 36.5032ZM21.2543 35.8262L19.8911 37.2896L23.2543 40.4227V35.8262H21.2543ZM21.1614 32.4379H23.1614V32.3672L23.1564 32.2967L21.1614 32.4379ZM20.7444 30.5501L22.6132 29.8377L22.5589 29.6952L22.4836 29.5625L20.7444 30.5501ZM19.8884 29.2976L21.4402 28.0359L18.1188 30.2295L19.8884 29.2976ZM20.7444 35.3094L18.785 34.9084L18.5691 35.9634L19.331 36.7244L20.7444 35.3094ZM16.0077 35.0613C16.0093 35.0628 16.0111 35.065 16.0127 35.068L12.4995 36.9804C12.6948 37.3392 12.9442 37.6653 13.2382 37.9475L16.0077 35.0613ZM16.0089 35.061C16.0331 35.105 16.045 35.1552 16.043 35.206L12.0462 35.0461C12.0191 35.7231 12.1774 36.3942 12.5034 36.9874L16.0089 35.061ZM16.0411 35.0089C15.7279 29.6717 16.0353 25.3339 17.5609 21.9162L13.9082 20.2858C11.978 24.6101 11.7254 29.747 12.048 35.2433L16.0411 35.0089ZM17.561 21.9158C17.5881 21.8551 17.6191 21.7845 17.6354 21.7476C17.6559 21.7013 17.6672 21.6766 17.6748 21.6607C17.691 21.6265 17.666 21.6859 17.6031 21.7714C17.5697 21.8169 17.5299 21.8642 17.4842 21.9102C17.4389 21.9559 17.396 21.992 17.36 22.019C17.2939 22.0689 17.2599 22.0814 17.3085 22.0573L15.5325 18.4732C15.1704 18.6526 14.7355 18.9187 14.3795 19.4033C14.2268 19.6112 14.1262 19.8088 14.063 19.9416C14.0095 20.054 13.941 20.2122 13.908 20.2862L17.561 21.9158ZM17.1085 22.1432C18.1604 21.7578 19.2888 21.6271 20.401 21.7619L20.8823 17.791C19.1428 17.5801 17.3779 17.7845 15.7325 18.3873L17.1085 22.1432ZM22.5233 20.4544C22.504 20.5078 22.4856 20.5463 22.5041 20.5053C22.511 20.4898 22.5559 20.3926 22.5959 20.2837C22.6734 20.0731 22.858 19.5037 22.6446 18.8166L18.8247 20.0032C18.6492 19.4383 18.8094 18.9911 18.8419 18.9027C18.8595 18.8549 18.8767 18.8187 18.8562 18.8643C18.8471 18.8844 18.8014 18.984 18.7601 19.0986L22.5233 20.4544ZM20.8941 17.4163C19.3919 17.2961 17.88 17.4161 16.4155 17.7719L17.3598 21.6588C18.4111 21.4034 19.4966 21.3172 20.5751 21.4035L20.8941 17.4163ZM16.5719 17.7404C16.22 17.7967 15.3562 17.9095 14.5965 18.4094C13.6814 19.0117 13.1826 19.9521 13.0147 21.0623L16.9698 21.6603C16.9925 21.5101 17.0169 21.4982 16.984 21.5549C16.9673 21.5837 16.9411 21.6208 16.9041 21.6595C16.8672 21.6982 16.8292 21.7286 16.7955 21.7508C16.732 21.7925 16.707 21.7899 16.7814 21.7698C16.8173 21.7601 16.8674 21.7486 16.9402 21.7349C17.0146 21.7208 17.0962 21.7074 17.2034 21.6903L16.5719 17.7404ZM13.1214 20.6543C11.2344 25.6474 11.3926 30.3521 11.5719 34.5923L15.5683 34.4233C15.3881 30.1615 15.2969 26.2126 16.8631 22.0683L13.1214 20.6543ZM11.5701 34.4993C11.5679 35.0126 11.6453 35.5229 11.7992 36.0121L15.6149 34.8119C15.5847 34.716 15.5697 34.6163 15.5701 34.5163L11.5701 34.4993ZM11.7988 36.0108C12.0032 36.6623 12.3109 37.3618 12.9017 37.8632C13.5404 38.4052 14.3687 38.4948 14.1944 38.4565L15.054 34.5499C15.007 34.5396 14.9663 34.5319 14.9427 34.5274C14.9035 34.5201 14.9165 34.5227 14.8991 34.5194C14.8879 34.5172 14.9288 34.5244 14.9878 34.5419C15.052 34.5609 15.1371 34.5916 15.2315 34.6406C15.3268 34.69 15.4138 34.7488 15.4901 34.8135C15.6409 34.9416 15.7031 35.0528 15.7072 35.0601C15.7092 35.0636 15.6733 34.9979 15.6153 34.8132L11.7988 36.0108ZM13.2489 35.0511L13.2477 35.0523L15.9982 37.9565L15.9995 37.9553L13.2489 35.0511ZM23.2543 35.8262C23.2543 35.2143 23.2291 34.6092 23.2062 34.0517C23.1827 33.4804 23.1614 32.9563 23.1614 32.4379H19.1614C19.1614 33.0522 19.1866 33.6583 19.2096 34.2161C19.2331 34.7877 19.2543 35.3104 19.2543 35.8262H23.2543ZM23.1564 32.2967C23.0969 31.4549 22.9139 30.6264 22.6132 29.8377L18.8756 31.2624C19.0365 31.6847 19.1345 32.1283 19.1664 32.579L23.1564 32.2967ZM22.4836 29.5625C22.1788 29.0257 21.8298 28.515 21.4402 28.0359L18.3366 30.5593C18.5862 30.8662 18.8098 31.1935 19.0052 31.5376L22.4836 29.5625ZM18.1188 30.2295C18.875 31.6655 19.1104 33.3187 18.785 34.9084L22.7038 35.7104C23.2145 33.2149 22.845 30.6197 21.658 28.3657L18.1188 30.2295ZM19.331 36.7244C19.3745 36.7679 19.6986 37.1103 19.8911 37.2896L22.6176 34.3628C22.4482 34.205 22.4617 34.1979 22.1578 33.8944L19.331 36.7244Z" fill="#388794" mask="url(#path-36-inside-1_32_828)"/>
<path d="M21.3473 36.0499L21.2605 36.0169C20.9342 35.8768 20.6543 35.6472 20.4534 35.3546L20.369 35.2483H20.4485C20.4668 34.8439 20.4595 34.4736 20.4485 34.1144C20.4412 33.7356 20.4326 33.3446 20.4546 32.9145V32.8423L20.5268 32.8534C20.7262 32.8727 20.9147 32.9537 21.0659 33.0852C21.2172 33.2165 21.3236 33.3918 21.3705 33.5865V33.6061L21.3546 34.773L21.3387 35.9582L21.3473 36.0499ZM20.5757 35.2997C20.7438 35.5335 20.9639 35.7251 21.2189 35.8593C21.2189 35.4731 21.2287 35.1261 21.2335 34.7706C21.2335 34.404 21.2433 34.0289 21.2495 33.6134C21.2115 33.4566 21.1282 33.3145 21.0098 33.2047C20.8915 33.095 20.7435 33.0225 20.5842 32.9963C20.5671 33.3922 20.5745 33.7576 20.5842 34.112C20.5842 34.4871 20.5964 34.8744 20.5757 35.2997Z" fill="#373435"/>
<path d="M22.9712 37.4221C22.7162 37.3215 22.5013 37.14 22.3598 36.9053C22.3158 34.8916 22.2779 32.873 22.2375 30.858L22.5444 31.1635C22.6132 31.5881 22.6447 32.0178 22.6386 32.4478L22.7328 32.6921C22.731 34.2718 22.8106 35.8506 22.9712 37.4221Z" fill="#EBEFFF"/>
<path d="M23.0727 37.8693L22.9871 37.8412C22.6314 37.7161 22.337 37.46 22.1641 37.1252L22.1556 37.108V37.0836C22.1556 36.4128 22.1678 35.7187 22.1678 35.0393V35.0223L22.1763 35.0076C22.361 34.6716 22.52 34.4553 22.6936 34.4895C22.8293 34.5164 22.9822 34.674 23.0849 35.632C23.0849 36.3443 23.0727 37.0702 23.0727 37.7801V37.8693ZM22.2864 37.0751C22.4307 37.3464 22.6619 37.5615 22.9431 37.686C22.9431 37.0054 22.9492 36.3126 22.9553 35.6405C22.8599 34.7498 22.723 34.6276 22.6692 34.6166C22.6154 34.6056 22.5102 34.674 22.3023 35.0552C22.2962 35.7273 22.2962 36.4128 22.2864 37.0763V37.0751Z" fill="#373435"/>
<path d="M20.8288 30.5794C20.8326 30.4758 20.8177 30.3723 20.7848 30.274C20.8349 30.2862 20.8851 30.2923 20.934 30.3057L21.7252 30.9485C21.8353 30.9018 21.923 30.8142 21.9697 30.7041C22.0197 30.7033 22.0693 30.7139 22.1146 30.7351C22.16 30.7562 22.1999 30.7874 22.2314 30.8263C22.2436 31.3383 22.2069 31.8429 22.2192 32.3536C22.3013 32.4236 22.3544 32.5217 22.3683 32.6286C22.6959 32.6417 23.0225 32.6731 23.3466 32.7227C23.3649 32.8033 23.3906 32.8534 23.4089 32.9353C23.0433 32.8943 22.6741 32.8943 22.3084 32.9353V33.1662C22.5952 33.1516 22.8828 33.1725 23.1644 33.2285L23.195 33.3972C22.8905 33.3607 22.5825 33.3648 22.279 33.4094C22.3231 34.6667 22.3231 35.9253 22.279 37.1826C22.1788 36.9456 21.9868 36.7147 21.8804 36.4776C22.0703 34.8649 22.0953 33.2371 21.955 31.6193C21.6649 31.1905 21.2795 30.8346 20.8288 30.5794Z" fill="#373435"/>
<path d="M22.1054 37.2597C22.0512 37.1432 21.9878 37.0312 21.9159 36.9248C21.838 36.8077 21.7685 36.6853 21.708 36.5582L21.6848 36.5081L21.6921 36.4532C21.8775 34.8712 21.9029 33.2747 21.7679 31.6877C21.4918 31.3044 21.1365 30.9848 20.7261 30.7505L20.616 30.6797L20.6405 30.5501C20.6409 30.5032 20.6335 30.4565 20.6185 30.4121C20.6101 30.3801 20.6028 30.3479 20.5964 30.3155L20.5402 30.0162L20.8361 30.0895L20.8997 30.1029C20.9279 30.1029 20.9572 30.1139 20.9853 30.1212L21.0269 30.1322L21.741 30.7114C21.7619 30.692 21.7782 30.6683 21.7887 30.6418L21.8364 30.5196H21.9721C22.0539 30.5189 22.1347 30.5375 22.208 30.5738C22.2813 30.6101 22.345 30.6631 22.394 30.7285L22.427 30.7762V30.8348C22.4332 31.0951 22.427 31.3566 22.4209 31.6083C22.4209 31.8319 22.4099 32.0629 22.4136 32.2901C22.4558 32.3384 22.4912 32.3923 22.5187 32.4502C22.7217 32.4588 22.9223 32.4856 23.1179 32.51L23.3698 32.5406L23.5068 32.5565L23.5373 32.6909C23.5444 32.7207 23.553 32.75 23.563 32.7789C23.5752 32.8168 23.5887 32.8559 23.5997 32.9011L23.6596 33.1601L23.3943 33.1394H23.3466L23.4359 33.6281L23.1779 33.6012C22.9469 33.5747 22.7138 33.5711 22.4821 33.5902C22.5202 34.7931 22.5202 35.9969 22.4821 37.1998L22.1054 37.2597ZM22.0883 36.4483L22.1116 36.4923V36.2247C22.1058 36.2996 22.0981 36.3741 22.0883 36.4483ZM21.8254 31.1208C21.9027 31.2032 21.9743 31.291 22.0394 31.3835V30.9607C21.9781 31.0263 21.9057 31.0805 21.8254 31.1208Z" fill="#373435"/>
<path d="M21.5882 19.4686C22.1523 19.3945 22.6959 19.2079 23.1864 18.9199C24.1591 18.3757 25.244 18.0621 26.3572 18.0035C25.8966 17.7956 25.3785 17.7525 24.8898 17.8813C23.6898 18.1723 22.5647 18.7132 21.5882 19.4686ZM27.6937 18.7916C30.3715 18.0214 33.2281 18.1501 35.8255 19.1582C33.2722 18.0369 30.4066 17.8437 27.7255 18.612C27.7243 18.7366 27.6937 18.6743 27.6937 18.7916Z" fill="#EBEFFF"/>
</g>
<defs>
<linearGradient id="paint0_linear_32_828" x1="20.7543" y1="16.1663" x2="28.54" y2="42.1132" gradientUnits="userSpaceOnUse">
<stop stop-color="#8A9FE0"/>
<stop offset="0.588" stop-color="#7182B8"/>
<stop offset="1" stop-color="#576490"/>
</linearGradient>
<clipPath id="clip0_32_828">
<rect width="60" height="58" fill="white" transform="translate(0 0.043457)"/>
</clipPath>
</defs>
</svg>
