<svg width="60" height="59" viewBox="0 0 60 59" fill="none" xmlns="http://www.w3.org/2000/svg">
<g clip-path="url(#clip0_32_804)">
<path d="M6.52174 1.04346H53.4783C56.5285 1.04346 59 3.51414 59 6.56031V51.5266C59 54.5728 56.5285 57.0435 53.4783 57.0435H6.52174C3.47146 57.0435 1 54.5728 1 51.5266V6.56031C1 3.51414 3.47146 1.04346 6.52174 1.04346Z" fill="#515151" stroke="#388794" stroke-width="2"/>
<path d="M30.3237 42.403C29.9311 42.403 29.5398 42.3004 29.1962 42.1012L25.606 39.9787C25.0704 39.6794 25.3321 39.5731 25.5081 39.5108C26.2235 39.2627 26.3678 39.2053 27.1321 38.7727C27.2116 38.7275 27.3167 38.7446 27.3987 38.7935L30.1574 40.4296C30.2086 40.4568 30.2656 40.471 30.3237 40.471C30.3816 40.471 30.4387 40.4568 30.49 40.4296L41.2447 34.2272C41.2948 34.197 41.3363 34.1544 41.365 34.1034C41.3937 34.0524 41.4087 33.9949 41.4085 33.9364V21.534C41.4085 21.4745 41.393 21.416 41.3637 21.3642C41.3343 21.3124 41.2921 21.269 41.2411 21.2383L30.4911 15.0408C30.4405 15.0125 30.3835 14.9977 30.3255 14.9977C30.2675 14.9977 30.2105 15.0125 30.1598 15.0408L19.4123 21.2395C19.3611 21.2699 19.3186 21.313 19.2888 21.3645C19.259 21.4161 19.243 21.4745 19.2424 21.534V33.9364C19.2426 33.995 19.2585 34.0526 19.2884 34.103C19.3182 34.1535 19.361 34.1951 19.4123 34.2235L22.3582 35.9244C23.9564 36.7236 24.9359 35.7827 24.9359 34.8369V22.5922C24.9359 22.4187 25.0753 22.283 25.2489 22.283H26.6123C26.7824 22.283 26.9242 22.4199 26.9242 22.5922V34.8369C26.9242 36.9692 25.7625 38.1911 23.74 38.1911C23.1188 38.1911 22.6284 38.1911 21.2625 37.5178L18.4402 35.8963C18.0972 35.6967 17.8125 35.4107 17.6147 35.0667C17.4168 34.7228 17.3127 34.3331 17.3127 33.9364V21.534C17.3127 20.7287 17.7444 19.976 18.4402 19.5753L29.195 13.3655C29.5414 13.1761 29.93 13.0768 30.3248 13.0768C30.7197 13.0768 31.1083 13.1761 31.4547 13.3655L42.2083 19.5753C42.9053 19.9773 43.3382 20.7287 43.3382 21.534V33.9364C43.3375 34.3332 43.2328 34.723 43.0345 35.0668C42.8363 35.4106 42.5515 35.6966 42.2083 35.8963L31.4547 42.1012C31.1123 42.3004 30.7223 42.403 30.3237 42.403ZM39.0069 30.1754C39.0069 27.8537 37.4368 27.2354 34.1315 26.7992C30.792 26.3581 30.452 26.1296 30.452 25.3488C30.452 24.7036 30.7394 23.8422 33.2132 23.8422C35.4228 23.8422 36.2373 24.3175 36.5723 25.8058C36.5875 25.8746 36.6258 25.9361 36.6807 25.9803C36.7355 26.0245 36.8038 26.0487 36.8743 26.049H38.2696C38.3121 26.0485 38.3543 26.0396 38.3933 26.0226C38.4324 26.0056 38.4677 25.9809 38.497 25.95C38.5265 25.9179 38.5491 25.8801 38.5632 25.8389C38.5773 25.7976 38.5827 25.7539 38.579 25.7105C38.3625 23.1469 36.6579 21.9519 33.2132 21.9519C30.1463 21.9519 28.317 23.2447 28.317 25.4136C28.317 27.7658 30.1366 28.4158 33.0799 28.7066C36.6016 29.0512 36.8743 29.5656 36.8743 30.2572C36.8743 31.4583 35.9095 31.9703 33.6436 31.9703C30.7981 31.9703 30.172 31.2567 29.9617 29.8418C29.95 29.7683 29.9124 29.7014 29.8557 29.6532C29.7989 29.605 29.7268 29.5788 29.6523 29.5791H28.262C28.2212 29.5788 28.1808 29.5865 28.143 29.6019C28.1052 29.6173 28.0709 29.6401 28.042 29.6688C28.0131 29.6976 27.9903 29.7318 27.9747 29.7694C27.9591 29.8071 27.9512 29.8474 27.9514 29.8882C27.9514 31.6991 28.937 33.8569 33.6436 33.8569C37.0529 33.8582 39.0069 32.5177 39.0069 30.1754Z" fill="#85B557"/>
</g>
<defs>
<clipPath id="clip0_32_804">
<rect width="60" height="58" fill="white" transform="translate(0 0.043457)"/>
</clipPath>
</defs>
</svg>
