<svg width="60" height="59" viewBox="0 0 60 59" fill="none" xmlns="http://www.w3.org/2000/svg">
<g clip-path="url(#clip0_32_792)">
<path d="M6.52174 1.04346H53.4783C56.5285 1.04346 59 3.51414 59 6.56031V51.5266C59 54.5728 56.5285 57.0435 53.4783 57.0435H6.52174C3.47146 57.0435 1 54.5728 1 51.5266V6.56031C1 3.51414 3.47146 1.04346 6.52174 1.04346Z" fill="#FF2D20" stroke="#388794" stroke-width="2"/>
<path d="M49.5454 18.0144C49.5585 18.0627 49.5652 18.1124 49.5652 18.1624V25.9386C49.5652 26.1417 49.4566 26.3294 49.28 26.4304L42.7487 30.1883V37.6361C42.7488 37.7358 42.7225 37.8337 42.6728 37.92C42.623 38.0064 42.5513 38.0781 42.4651 38.1281L28.831 45.9709C28.7997 45.9885 28.7658 45.9998 28.7316 46.012C28.7189 46.0161 28.7069 46.024 28.6934 46.0275C28.5981 46.0526 28.4979 46.0526 28.4026 46.0275C28.3869 46.0234 28.3728 46.0148 28.3579 46.0091C28.3267 45.9977 28.294 45.9878 28.2643 45.9709L14.633 38.128C14.5464 38.0783 14.4744 38.0067 14.4243 37.9203C14.3742 37.834 14.3479 37.7359 14.3478 37.6361V14.3078C14.3478 14.2566 14.355 14.207 14.3676 14.1589C14.3719 14.1425 14.3818 14.1277 14.3876 14.1114C14.3982 14.0817 14.4082 14.0512 14.4237 14.0235C14.4344 14.0051 14.4499 13.9902 14.4627 13.9732C14.479 13.9505 14.4939 13.9271 14.513 13.9072C14.5294 13.891 14.5507 13.8789 14.5692 13.8647C14.5898 13.8477 14.6081 13.8293 14.6315 13.8158H14.6322L21.4481 9.89445C21.5345 9.84486 21.6323 9.81873 21.7319 9.81873C21.8315 9.81873 21.9293 9.84486 22.0156 9.89445L28.8315 13.8158H28.8329C28.8556 13.8301 28.8749 13.8477 28.8953 13.8641C28.9138 13.8782 28.9344 13.891 28.9507 13.9067C28.9706 13.9271 28.9848 13.9507 29.0017 13.9732C29.0138 13.9902 29.0302 14.0051 29.0401 14.0235C29.0563 14.0518 29.0655 14.0817 29.077 14.1115C29.0826 14.1277 29.0925 14.1425 29.0967 14.1596C29.1098 14.2078 29.1166 14.2577 29.1167 14.3078V28.8782L34.7963 25.6103V18.1617C34.7963 18.1123 34.8035 18.0618 34.8163 18.0144C34.8213 17.9974 34.8305 17.9825 34.8361 17.9663C34.8475 17.9364 34.8574 17.9058 34.873 17.8783C34.8835 17.8599 34.8991 17.845 34.9113 17.828C34.9283 17.8053 34.9424 17.7819 34.9623 17.762C34.9788 17.7458 34.9992 17.7337 35.0177 17.7196C35.039 17.7025 35.0574 17.684 35.0801 17.6706H35.0808L41.8975 13.7493C41.9838 13.6996 42.0816 13.6734 42.1812 13.6734C42.2808 13.6734 42.3787 13.6996 42.4649 13.7493L49.2809 17.6706C49.3049 17.6848 49.3234 17.7025 49.3447 17.7187C49.3623 17.733 49.3829 17.7458 49.3993 17.7613C49.4191 17.7819 49.4333 17.8053 49.4502 17.828C49.4632 17.845 49.4787 17.8599 49.4887 17.8783C49.505 17.9058 49.5142 17.9364 49.5254 17.9663C49.532 17.9825 49.5411 17.9974 49.5454 18.0144ZM48.4291 25.6104V19.1441L46.0437 20.5161L42.7486 22.412V28.8784L48.4297 25.6104H48.4291ZM41.6131 37.308V30.8371L38.3717 32.687L29.116 37.9657V44.4971L41.6131 37.3077V37.308ZM15.484 15.2893V37.308L27.9797 44.4966V37.9663L21.4518 34.2746L21.4497 34.2732L21.447 34.2719C21.425 34.259 21.4064 34.2406 21.386 34.2251C21.3681 34.2108 21.3475 34.1995 21.332 34.1839L21.3307 34.1818C21.3122 34.1641 21.2994 34.142 21.2839 34.1223C21.2695 34.103 21.2527 34.0868 21.2412 34.067L21.2405 34.0648C21.2277 34.0436 21.2199 34.0181 21.2106 33.994C21.2015 33.9727 21.1895 33.9528 21.1837 33.9302V33.9295C21.1767 33.9026 21.1753 33.8741 21.1724 33.8465C21.1697 33.8253 21.1639 33.804 21.1639 33.7827V18.5574L17.8693 16.6606L15.484 15.2901V15.2893ZM21.7326 11.0412L16.0535 14.3078L21.7312 17.5742L27.4095 14.3069L21.7312 11.0412H21.7326ZM24.6859 31.427L27.9804 29.5319V15.2893L25.5954 16.6615L22.2999 18.5572V32.7997L24.6859 31.427ZM42.1811 14.896L36.5029 18.1624L42.1811 21.429L47.8587 18.1617L42.1812 14.896H42.1811ZM41.6129 22.412L38.3178 20.5161L35.9326 19.1441V25.6104L39.2272 27.5057L41.6131 28.8784V22.412H41.6129ZM28.5472 36.9842L36.8759 32.2328L41.0393 29.8585L35.3652 26.5941L28.8322 30.3524L22.878 33.7777L28.5472 36.9842Z" fill="white"/>
</g>
<defs>
<clipPath id="clip0_32_792">
<rect width="60" height="58" fill="white" transform="translate(0 0.043457)"/>
</clipPath>
</defs>
</svg>
