<svg width="60" height="59" viewBox="0 0 60 59" fill="none" xmlns="http://www.w3.org/2000/svg">
<g clip-path="url(#clip0_32_1186)">
<path d="M6.52174 1.04346H53.4783C56.5285 1.04346 59 3.51414 59 6.56031V51.5266C59 54.5728 56.5285 57.0435 53.4783 57.0435H6.52174C3.47146 57.0435 1 54.5728 1 51.5266V6.56031C1 3.51414 3.47146 1.04346 6.52174 1.04346Z" fill="#082846" stroke="#388794" stroke-width="2"/>
<path d="M46.3027 21.2372C46.3025 20.6216 46.1706 20.0774 45.904 19.6104C45.6424 19.1512 45.2502 18.7663 44.7243 18.462C40.3833 15.9607 36.0378 13.4671 31.6982 10.9633C30.5283 10.2884 29.3939 10.313 28.2325 10.9977C26.5046 12.016 17.8538 16.9686 15.2758 18.4605C14.2142 19.0747 13.6975 20.0145 13.6973 21.2359C13.6956 26.2663 13.6973 31.2963 13.6956 36.3267C13.6956 36.9287 13.8221 37.4624 14.0769 37.9224C14.3388 38.3955 14.7363 38.791 15.2744 39.1022C17.8525 40.5942 26.5045 45.5465 28.232 46.5648C29.3938 47.2499 30.5283 47.2745 31.6986 46.5993C36.0383 44.0953 40.384 41.6019 44.7258 39.1006C45.2638 38.7896 45.6614 38.3938 45.9232 37.9212C46.1776 37.4611 46.3043 36.9275 46.3043 36.3251C46.3043 36.3251 46.3043 26.2675 46.3027 21.2372Z" fill="#649AD2"/>
<path d="M30.05 28.7324L14.0768 37.9224C14.3388 38.3955 14.7363 38.791 15.2744 39.1022C17.8525 40.5942 26.5045 45.5465 28.232 46.5649C29.3938 47.2499 30.5283 47.2744 31.6986 46.5992C36.0383 44.0953 40.384 41.6019 44.7258 39.1007C45.2638 38.7896 45.6614 38.3939 45.9232 37.9211L30.05 28.7324Z" fill="#004482"/>
<path d="M25.3189 31.4546C26.2484 33.0758 27.9956 34.1695 30 34.1695C32.0168 34.1695 33.7739 33.0622 34.6987 31.4232L30.05 28.7324L25.3189 31.4546Z" fill="#1A4674"/>
<path d="M46.3027 21.2372C46.3025 20.6215 46.1706 20.0773 45.904 19.6104L30.05 28.7323L45.9232 37.9211C46.1776 37.4611 46.3041 36.9275 46.3043 36.3251C46.3043 36.3251 46.3043 26.2675 46.3027 21.2372Z" fill="#01589C"/>
<path d="M45.4299 29.3892H44.1895V30.6289H42.9488V29.3892H41.7085V28.15H42.9488V26.9106H44.1895V28.15H45.4299V29.3894V29.3892ZM30 17.9607C33.9659 17.9607 37.4335 20.0914 39.3202 23.2695L39.3768 23.3661L34.6637 26.0781C33.7296 24.4732 31.9915 23.3932 30 23.3932C27.0219 23.3932 24.6077 25.8056 24.6077 28.7813C24.6067 29.7192 24.8519 30.641 25.3189 31.4546C26.2483 33.076 27.9956 34.1695 30 34.1695C31.9946 34.1695 33.7353 33.0864 34.668 31.4772L34.6987 31.4233L39.4049 34.1479C37.5389 37.4059 34.026 39.6021 30 39.6021C25.9814 39.6021 22.474 37.4147 20.6054 34.1662C19.6931 32.5804 19.1711 30.7419 19.1711 28.7813C19.1711 22.8054 24.0192 17.9607 30 17.9607ZM39.6635 26.9104V28.1499H40.9038V29.3892H39.6635V30.6289H38.4231V29.3892H37.1827V28.15H38.4231V26.9106H39.6635V26.9104Z" fill="white"/>
</g>
<defs>
<clipPath id="clip0_32_1186">
<rect width="60" height="58" fill="white" transform="translate(0 0.043457)"/>
</clipPath>
</defs>
</svg>
