<svg width="60" height="58" viewBox="0 0 60 58" fill="none" xmlns="http://www.w3.org/2000/svg">
<g clip-path="url(#clip0_32_332)">
<path d="M6.52174 1H53.4783C56.5285 1 59 3.47069 59 6.51685V51.4831C59 54.5293 56.5285 57 53.4783 57H6.52174C3.47146 57 1 54.5293 1 51.4831V6.51685C1 3.47069 3.47146 1 6.52174 1Z" fill="#292929" stroke="#388794" stroke-width="2"/>
<path d="M45.9089 15.8338L38.8581 12.4418C38.46 12.2499 38.0119 12.1866 37.5761 12.2606C37.1403 12.3346 36.7383 12.5423 36.4259 12.8548L13.3451 33.8814C13.0651 34.1353 12.8974 34.49 12.8791 34.8674C12.8607 35.2448 12.9932 35.6141 13.2473 35.8939C13.2779 35.9269 13.3084 35.9587 13.3414 35.988L15.2258 37.6987C15.472 37.9226 15.789 38.0533 16.1216 38.068C16.4542 38.0827 16.7815 37.9806 17.0466 37.7793L44.8475 16.7136C45.0575 16.5544 45.3078 16.4569 45.5703 16.432C45.8327 16.4073 46.0968 16.4562 46.333 16.5733C46.5691 16.6904 46.7678 16.8709 46.9068 17.0948C47.0457 17.3187 47.1194 17.5768 47.1196 17.8402V17.7583C47.1196 17.3562 47.0059 16.9622 46.7917 16.6217C46.5776 16.2813 46.2716 16.0082 45.9089 15.8338Z" fill="#0065A9"/>
<path d="M45.9089 42.6425L38.8581 46.0357C38.4599 46.2271 38.012 46.29 37.5762 46.2161C37.1406 46.1421 36.7386 45.9348 36.4259 45.6228L13.3451 24.5949C13.0651 24.3409 12.8974 23.9863 12.8791 23.6089C12.8607 23.2315 12.9932 22.8623 13.2473 22.5824C13.2779 22.5494 13.3084 22.5177 13.3414 22.4883L15.2258 20.7777C15.4723 20.5528 15.79 20.4215 16.1234 20.4068C16.4568 20.3921 16.7849 20.4948 17.0502 20.697L44.8475 41.7627C45.0575 41.922 45.3078 42.0195 45.5703 42.0442C45.8327 42.069 46.0968 42.0201 46.333 41.903C46.5691 41.786 46.7678 41.6053 46.9068 41.3815C47.0457 41.1577 47.1194 40.8996 47.1196 40.6361V40.7241C47.1183 41.1252 47.004 41.5177 46.79 41.857C46.5758 42.1963 46.2706 42.4685 45.9089 42.6425Z" fill="#007ACC"/>
<path d="M38.8582 46.0357C38.4599 46.2271 38.012 46.29 37.5762 46.2161C37.1406 46.1421 36.7387 45.9348 36.4259 45.6228C36.6016 45.7959 36.8244 45.9135 37.0666 45.9607C37.3087 46.0078 37.5594 45.9825 37.7873 45.8879C38.0152 45.7933 38.21 45.6337 38.3474 45.4289C38.4848 45.2241 38.5587 44.9834 38.5598 44.7369V13.7395C38.56 13.4918 38.4866 13.2496 38.3489 13.0436C38.2113 12.8376 38.0156 12.6771 37.7865 12.5823C37.5575 12.4876 37.3055 12.4629 37.0624 12.5114C36.8193 12.5599 36.5961 12.6794 36.4211 12.8548C36.7335 12.5424 37.1354 12.3348 37.5711 12.2605C38.0069 12.1863 38.4549 12.2492 38.8533 12.4406L45.9029 15.8277C46.2666 16.0012 46.5739 16.274 46.7892 16.6145C47.0045 16.955 47.119 17.3494 47.1196 17.7522V40.7241C47.1196 41.1266 47.006 41.5209 46.7915 41.8616C46.5772 42.2023 46.2708 42.4755 45.9078 42.6499L38.8582 46.0357Z" fill="#1F9CF0"/>
</g>
<defs>
<clipPath id="clip0_32_332">
<rect width="60" height="58" fill="white"/>
</clipPath>
</defs>
</svg>
