<svg width="60" height="59" viewBox="0 0 60 59" fill="none" xmlns="http://www.w3.org/2000/svg">
<g clip-path="url(#clip0_32_1202)">
<path d="M6.52174 1.04346H53.4783C56.5285 1.04346 59 3.51414 59 6.56031V51.5266C59 54.5728 56.5285 57.0435 53.4783 57.0435H6.52174C3.47146 57.0435 1 54.5728 1 51.5266V6.56031C1 3.51414 3.47146 1.04346 6.52174 1.04346Z" fill="#F13983" stroke="#388794" stroke-width="2"/>
<path d="M29.639 11.1221C28.576 11.1359 27.5368 11.4379 26.6324 11.996L17.2777 17.7674C16.3734 18.3257 15.6267 19.1058 15.1087 20.0335C14.5908 20.9611 14.3185 22.0057 14.318 23.068V34.8424C14.319 35.9049 14.5998 36.9486 15.1322 37.8685C15.6646 38.7884 16.4298 39.552 17.3511 40.0828L26.8686 45.5565C27.7239 46.0477 28.6923 46.3085 29.6788 46.3131C30.6653 46.3177 31.6361 46.0661 32.4961 45.5829L42.8309 39.7676C43.6955 39.2807 44.4151 38.5729 44.9161 37.7168C45.4171 36.8606 45.6814 35.8869 45.682 34.8951V22.4888C45.6817 21.5735 45.4411 20.6741 44.9844 19.8807C44.5276 19.0872 43.8706 18.4273 43.0789 17.9668L32.6663 11.9154C31.7475 11.3825 30.7012 11.1088 29.639 11.1236V11.1221ZM29.6713 13.5767C30.2774 13.5679 30.8863 13.7233 31.4322 14.0386L41.8433 20.09C42.7003 20.5885 43.2241 21.4976 43.2227 22.4873V34.8951C43.2227 36.03 42.6152 37.0711 41.6247 37.6283L31.2913 43.4436C30.803 43.719 30.2514 43.8624 29.6906 43.8599C29.1299 43.8573 28.5796 43.7088 28.0939 43.429L18.5778 37.9538C18.0299 37.6393 17.5748 37.1858 17.2584 36.6392C16.942 36.0926 16.7755 35.4723 16.7759 34.8409V23.0665C16.7759 21.7571 17.4524 20.5445 18.5676 19.8554L27.9237 14.0855C28.4489 13.761 29.0524 13.5851 29.6699 13.5767H29.6713ZM22.7746 19.2131V38.0579H26.7218V29.8174H33.2664V38.0579H37.2225V19.2131H33.2664V26.0769H26.7218V19.2131H22.7746Z" fill="white"/>
</g>
<defs>
<clipPath id="clip0_32_1202">
<rect width="60" height="58" fill="white" transform="translate(0 0.043457)"/>
</clipPath>
</defs>
</svg>
