<svg width="60" height="59" viewBox="0 0 60 59" fill="none" xmlns="http://www.w3.org/2000/svg">
<g clip-path="url(#clip0_32_786)">
<path d="M6.52174 1.04346H53.4783C56.5285 1.04346 59 3.51414 59 6.56031V51.5266C59 54.5728 56.5285 57.0435 53.4783 57.0435H6.52174C3.47146 57.0435 1 54.5728 1 51.5266V6.56031C1 3.51414 3.47146 1.04346 6.52174 1.04346Z" fill="white" stroke="#388794" stroke-width="2"/>
<path d="M31.9565 16.3356C26.7392 16.3356 23.4782 18.9424 22.1739 24.1558C24.1304 21.549 26.413 20.5715 29.0217 21.2232C30.5101 21.595 31.5739 22.6741 32.7515 23.8683C34.6698 25.8141 36.8899 28.0659 41.7391 28.0659C46.9565 28.0659 50.2174 25.4591 51.5217 20.2457C49.5652 22.8525 47.2827 23.83 44.6739 23.1783C43.1856 22.8065 42.1217 21.7274 40.9441 20.5331C39.0258 18.5874 36.8058 16.3356 31.9565 16.3356ZM22.1739 28.0659C16.9566 28.0659 13.6956 30.6727 12.3913 35.8861C14.3478 33.2793 16.6304 32.3018 19.2391 32.9536C20.7274 33.3253 21.7913 34.4044 22.9689 35.5987C24.8872 37.5444 27.1073 39.7962 31.9565 39.7962C37.1738 39.7962 40.4348 37.1894 41.7391 31.976C39.7826 34.5828 37.5001 35.5604 34.8913 34.9086C33.403 34.5368 32.3391 33.4578 31.1615 32.2635C29.2432 30.3177 27.0231 28.0659 22.1739 28.0659Z" fill="url(#paint0_linear_32_786)"/>
</g>
<defs>
<linearGradient id="paint0_linear_32_786" x1="11.3043" y1="23.843" x2="45.0871" y2="43.3362" gradientUnits="userSpaceOnUse">
<stop stop-color="#2298BD"/>
<stop offset="1" stop-color="#0ED7B5"/>
</linearGradient>
<clipPath id="clip0_32_786">
<rect width="60" height="58" fill="white" transform="translate(0 0.043457)"/>
</clipPath>
</defs>
</svg>
