<svg width="60" height="58" viewBox="0 0 60 58" fill="none" xmlns="http://www.w3.org/2000/svg">
<g clip-path="url(#clip0_32_337)">
<path d="M6.52174 1H53.4783C56.5285 1 59 3.47069 59 6.51685V51.4831C59 54.5293 56.5285 57 53.4783 57H6.52174C3.47146 57 1 54.5293 1 51.4831V6.51685C1 3.47069 3.47146 1 6.52174 1Z" fill="#FFAD96" stroke="#388794" stroke-width="2"/>
<path d="M17.6519 42.946L14.9042 12.1526H45.0958L42.3444 42.9411L29.9817 46.3661L17.6519 42.946Z" fill="#E44F26"/>
<path d="M30 43.7488L39.9905 40.9811L42.3408 14.671H30V43.7488Z" fill="#F1662A"/>
<path d="M30 26.0909H24.9986L24.6538 22.2236H30V18.4467H20.5231L20.6136 19.4608L21.5417 29.8678H30V26.0909ZM30 35.8992L29.9829 35.9041L25.7739 34.7689L25.5049 31.7569H21.7105L22.24 37.6856L29.9829 39.8337L30 39.8288V35.8992Z" fill="#EBEBEB"/>
<path d="M29.9866 26.0909V29.8678H34.6406L34.2029 34.7665L29.9866 35.9028V39.8325L37.7356 37.6856L37.7919 37.0478L38.6796 27.1051L38.7725 26.0909H29.9866ZM29.9866 18.4467V22.2236H39.1162L39.192 21.3755L39.3644 19.4608L39.4549 18.4467H29.9866Z" fill="white"/>
</g>
<defs>
<clipPath id="clip0_32_337">
<rect width="60" height="58" fill="white"/>
</clipPath>
</defs>
</svg>
