<svg width="60" height="59" viewBox="0 0 60 59" fill="none" xmlns="http://www.w3.org/2000/svg">
<g clip-path="url(#clip0_32_991)">
<path d="M6.52174 1.04346H53.4783C56.5285 1.04346 59 3.51414 59 6.56031V51.5266C59 54.5728 56.5285 57.0435 53.4783 57.0435H6.52174C3.47146 57.0435 1 54.5728 1 51.5266V6.56031C1 3.51414 3.47146 1.04346 6.52174 1.04346Z" fill="#3E9EEC" stroke="#388794" stroke-width="2"/>
<path d="M29.8619 11.7829C21.6038 11.7829 22.1194 15.3614 22.1194 15.3614L22.1286 19.0689H30.0092V20.182H18.9985C18.9985 20.182 13.7141 19.5832 13.7141 27.9093C13.7141 36.2358 18.3265 35.9405 18.3265 35.9405H21.0791V32.0767C21.0791 32.0767 20.9307 27.4678 25.6179 27.4678H33.434C33.434 27.4678 37.8253 27.5387 37.8253 23.2269V16.0975C37.8253 16.0975 38.4923 11.7829 29.8619 11.7829ZM25.5166 14.2761C25.7028 14.276 25.8872 14.3125 26.0593 14.3836C26.2314 14.4547 26.3877 14.5591 26.5194 14.6907C26.6511 14.8223 26.7555 14.9785 26.8267 15.1505C26.8979 15.3224 26.9345 15.5067 26.9343 15.6927C26.9345 15.8789 26.8979 16.0632 26.8267 16.2351C26.7555 16.4071 26.6511 16.5633 26.5194 16.6948C26.3877 16.8265 26.2314 16.9308 26.0593 17.0019C25.8872 17.0731 25.7028 17.1096 25.5166 17.1094C25.3303 17.1096 25.1459 17.0731 24.9738 17.0019C24.8017 16.9308 24.6454 16.8265 24.5137 16.6948C24.382 16.5633 24.2776 16.4071 24.2064 16.2351C24.1353 16.0632 24.0987 15.8789 24.0989 15.6927C24.0987 15.5067 24.1353 15.3224 24.2064 15.1505C24.2776 14.9785 24.382 14.8223 24.5137 14.6907C24.6454 14.5591 24.8017 14.4547 24.9738 14.3836C25.1459 14.3125 25.3303 14.276 25.5166 14.2761Z" fill="url(#paint0_linear_32_991)"/>
<path d="M30.0965 44.1194C38.3546 44.1194 37.8389 40.5409 37.8389 40.5409L37.8298 36.8336H29.9491V35.7205H40.9597C40.9597 35.7205 46.2441 36.3194 46.2441 27.9929C46.2441 19.6666 41.6318 19.9619 41.6318 19.9619H38.8791V23.8256C38.8791 23.8256 39.0275 28.4345 34.3404 28.4345H26.5242C26.5242 28.4345 22.1329 28.3636 22.1329 32.6755V39.805C22.1329 39.805 21.466 44.1194 30.0963 44.1194H30.0965ZM34.4418 41.6266C34.2556 41.6267 34.0711 41.5902 33.8991 41.519C33.727 41.4479 33.5706 41.3435 33.4389 41.212C33.3072 41.0804 33.2028 40.9242 33.1317 40.7522C33.0605 40.5803 33.0239 40.396 33.0241 40.2099C33.0239 40.0238 33.0605 39.8395 33.1316 39.6675C33.2028 39.4955 33.3072 39.3393 33.4389 39.2077C33.5706 39.0761 33.7269 38.9717 33.899 38.9006C34.0711 38.8295 34.2556 38.7929 34.4418 38.7931C34.628 38.7929 34.8125 38.8295 34.9845 38.9006C35.1566 38.9717 35.3129 39.0761 35.4446 39.2076C35.5763 39.3392 35.6808 39.4955 35.7519 39.6674C35.8231 39.8394 35.8596 40.0237 35.8595 40.2097C35.8596 40.3958 35.8231 40.5801 35.7519 40.7521C35.6808 40.924 35.5763 41.0802 35.4446 41.2118C35.3129 41.3434 35.1566 41.4478 34.9845 41.5189C34.8125 41.5901 34.628 41.6266 34.4418 41.6264V41.6266Z" fill="url(#paint1_linear_32_991)"/>
</g>
<defs>
<linearGradient id="paint0_linear_32_991" x1="16.8402" y1="14.6914" x2="32.9492" y2="30.6515" gradientUnits="userSpaceOnUse">
<stop stop-color="#387EB8"/>
<stop offset="1" stop-color="#366994"/>
</linearGradient>
<linearGradient id="paint1_linear_32_991" x1="26.7352" y1="24.9323" x2="44.0349" y2="41.2985" gradientUnits="userSpaceOnUse">
<stop stop-color="#FFE052"/>
<stop offset="1" stop-color="#FFC331"/>
</linearGradient>
<clipPath id="clip0_32_991">
<rect width="60" height="58" fill="white" transform="translate(0 0.043457)"/>
</clipPath>
</defs>
</svg>
