<svg width="18" height="18" viewBox="0 0 18 18" fill="none" xmlns="http://www.w3.org/2000/svg">
<path d="M8.99549 1.5C7.51213 1.5 6.06208 1.93987 4.82871 2.76398C3.59534 3.58809 2.63405 4.75943 2.06639 6.12987C1.49873 7.50032 1.35021 9.00832 1.6396 10.4632C1.92899 11.918 2.64329 13.2544 3.69219 14.3033C4.74108 15.3522 6.07745 16.0665 7.53231 16.3559C8.98717 16.6453 10.4952 16.4968 11.8656 15.9291C13.2361 15.3614 14.4074 14.4001 15.2315 13.1668C16.0556 11.9334 16.4955 10.4834 16.4955 9C16.4955 8.01509 16.3015 7.03982 15.9246 6.12987C15.5477 5.21993 14.9952 4.39314 14.2988 3.6967C13.6023 3.00026 12.7756 2.44781 11.8656 2.0709C10.9557 1.69399 9.9804 1.5 8.99549 1.5ZM11.3805 12.864C11.3525 12.9341 11.3098 12.9973 11.2554 13.0495C11.2009 13.1018 11.1359 13.1417 11.0647 13.1667C10.9935 13.1917 10.9178 13.2012 10.8427 13.1945C10.7675 13.1879 10.6946 13.1652 10.629 13.128L8.59274 11.5455L7.28624 12.7515C7.25591 12.7739 7.22044 12.7883 7.1831 12.7934C7.14575 12.7985 7.10771 12.7942 7.07249 12.7808L7.32299 10.539L7.33049 10.5457L7.33574 10.5015C7.33574 10.5015 10.9995 7.1655 11.1487 7.02375C11.3002 6.882 11.25 6.85125 11.25 6.85125C11.259 6.67875 10.9792 6.85125 10.9792 6.85125L6.12449 9.97425L4.10324 9.28575C4.10324 9.28575 3.79274 9.17475 3.76349 8.9295C3.73274 8.6865 4.11299 8.5545 4.11299 8.5545L12.1507 5.361C12.1507 5.361 12.8115 5.067 12.8115 5.5545L11.3805 12.864Z" fill="#211B3D"/>
</svg>
