<svg width="60" height="60" viewBox="0 0 60 60" fill="none" xmlns="http://www.w3.org/2000/svg">
<path d="M30.1 5C16.45 5 5.325 16.125 5.325 29.775C5.325 34.15 6.475 38.4 8.625 42.15L5.125 55L18.25 51.55C21.875 53.525 25.95 54.575 30.1 54.575C43.75 54.575 54.875 43.45 54.875 29.8C54.875 23.175 52.3 16.95 47.625 12.275C45.333 9.95981 42.603 8.12417 39.5941 6.87512C36.5852 5.62608 33.3578 4.98865 30.1 5ZM30.125 9.175C35.625 9.175 40.775 11.325 44.675 15.225C46.589 17.1384 48.1065 19.4108 49.1404 21.9119C50.1743 24.413 50.7043 27.0936 50.7 29.8C50.7 41.15 41.45 50.375 30.1 50.375C26.4 50.375 22.775 49.4 19.625 47.5L18.875 47.075L11.075 49.125L13.15 41.525L12.65 40.725C10.5849 37.4467 9.49253 33.6496 9.5 29.775C9.525 18.425 18.75 9.175 30.125 9.175ZM21.325 18.325C20.925 18.325 20.25 18.475 19.675 19.1C19.125 19.725 17.5 21.25 17.5 24.275C17.5 27.325 19.725 30.25 20 30.675C20.35 31.1 24.4 37.35 30.625 40C32.1 40.675 33.25 41.05 34.15 41.325C35.625 41.8 36.975 41.725 38.05 41.575C39.25 41.4 41.7 40.075 42.225 38.625C42.75 37.175 42.75 35.95 42.6 35.675C42.425 35.425 42.025 35.275 41.4 35C40.775 34.65 37.725 33.15 37.175 32.95C36.6 32.75 36.25 32.65 35.775 33.25C35.375 33.875 34.175 35.275 33.825 35.675C33.45 36.1 33.1 36.15 32.5 35.85C31.85 35.525 29.85 34.875 27.5 32.775C25.65 31.125 24.425 29.1 24.05 28.475C23.75 27.875 24.025 27.5 24.325 27.225C24.6 26.95 25 26.5 25.25 26.125C25.575 25.775 25.675 25.5 25.875 25.1C26.075 24.675 25.975 24.325 25.825 24.025C25.675 23.75 24.425 20.65 23.9 19.425C23.4 18.225 22.9 18.375 22.5 18.35C22.15 18.35 21.75 18.325 21.325 18.325Z" fill="#40C351"/>
</svg>
